<svg width="54" height="43" viewBox="0 0 54 43" fill="none" xmlns="http://www.w3.org/2000/svg">
<path d="M1.30476 18.3146C0.469279 19.1594 2.70641e-07 20.3045 2.56403e-07 21.4985C2.42165e-07 22.6924 0.469279 23.8376 1.30476 24.6824L18.1273 41.68C18.9642 42.5252 20.0993 43 21.283 43C22.4666 43 23.6017 42.5252 24.4387 41.68C25.2756 40.8347 25.7458 39.6884 25.7458 38.4931C25.7458 37.2978 25.2756 36.1514 24.4387 35.3062L15.2303 26.004L49.5386 26.004C50.7218 26.004 51.8566 25.5293 52.6933 24.6843C53.53 23.8394 54 22.6934 54 21.4985C54 20.3036 53.53 19.1576 52.6933 18.3127C51.8566 17.4677 50.7218 16.993 49.5386 16.993L15.2303 16.993L24.4387 7.69376C24.8531 7.27526 25.1818 6.77843 25.4061 6.23162C25.6304 5.68482 25.7458 5.09876 25.7458 4.5069C25.7458 3.91505 25.6304 3.32899 25.4061 2.78219C25.1818 2.23539 24.8531 1.73854 24.4387 1.32004C24.0243 0.901535 23.5323 0.569565 22.9908 0.343071C22.4494 0.116577 21.869 2.60786e-07 21.283 2.53797e-07C20.6969 2.46808e-07 20.1166 0.116577 19.5751 0.343071C19.0337 0.569565 18.5417 0.901535 18.1273 1.32004L1.30476 18.3146Z" fill="#FAFCFF"/>
</svg>
