<svg width="49" height="49" viewBox="0 0 49 49" fill="none" xmlns="http://www.w3.org/2000/svg">
<circle cx="24.225" cy="24.6249" r="24.225" fill="#FAFCFF"/>
<circle cx="24.225" cy="24.6248" r="18.1688" fill="#212332"/>
<path d="M39.2657 23.5255C39.2658 24.3746 39.0224 25.2058 38.5643 25.9207C38.1062 26.6355 37.4526 27.204 36.6811 27.5585C36.3719 27.016 35.983 26.5229 35.5273 26.0959C36.209 25.9101 36.789 25.4612 37.1397 24.8478C37.4904 24.2345 37.5831 23.5069 37.3974 22.8252C37.2117 22.1435 36.7627 21.5635 36.1494 21.2128C35.536 20.8621 34.8085 20.7694 34.1268 20.9551C34.0041 20.9884 33.8757 20.9949 33.7503 20.9742C33.6248 20.9536 33.5053 20.9062 33.3998 20.8354C33.2943 20.7645 33.2052 20.6718 33.1386 20.5635C33.072 20.4553 33.0294 20.334 33.0138 20.2078C32.8882 19.1913 32.4722 18.2325 31.8155 17.4464C31.1589 16.6603 30.2894 16.0803 29.3114 15.7758C28.3335 15.4714 27.2884 15.4554 26.3016 15.7299C25.3148 16.0044 24.428 16.5576 23.7477 17.3233C22.9892 17.2885 22.2292 17.3409 21.4827 17.4795C22.1634 16.2259 23.2057 15.2063 24.474 14.5534C25.7423 13.9005 27.1778 13.6446 28.5935 13.8189C30.0093 13.9931 31.3398 14.5896 32.4119 15.5306C33.484 16.4716 34.2479 17.7136 34.6043 19.0948C35.205 19.0645 35.8056 19.1566 36.3696 19.3656C36.9336 19.5746 37.4493 19.896 37.8853 20.3104C38.3212 20.7248 38.6684 21.2235 38.9057 21.7761C39.143 22.3288 39.2655 22.924 39.2657 23.5255Z" fill="#FAFCFF"/>
<path d="M23.2896 19.0876C25.2547 19.0873 27.151 19.8113 28.6159 21.1212C30.0807 22.4312 31.0113 24.2351 31.2296 26.1881H31.2776C32.4545 26.1881 33.5833 26.6556 34.4155 27.4879C35.2478 28.3201 35.7153 29.4489 35.7153 30.6258C35.7153 31.8028 35.2478 32.9316 34.4155 33.7638C33.5833 34.5961 32.4545 35.0636 31.2776 35.0636H16.1892C14.8141 35.0647 13.4919 34.5338 12.4994 33.582C11.5069 32.6303 10.921 31.3316 10.8643 29.9577C10.8077 28.5838 11.2847 27.2412 12.1954 26.211C13.1062 25.1808 14.3802 24.5429 15.7507 24.4307C16.2993 22.869 17.3192 21.5162 18.6696 20.5591C20.0201 19.602 21.6344 19.0879 23.2896 19.0876ZM29.5025 27.0756C29.5035 25.5624 28.9522 24.1008 27.9521 22.9652C26.952 21.8295 25.5718 21.0979 24.0705 20.9077C22.5693 20.7175 21.0503 21.0817 19.7985 21.932C18.5467 22.7824 17.6484 24.0603 17.272 25.526C17.221 25.7243 17.1031 25.899 16.9381 26.0203C16.7731 26.1416 16.5712 26.2022 16.3667 26.1916C15.8951 26.1707 15.4241 26.244 14.9813 26.4073C14.5384 26.5705 14.1325 26.8204 13.7874 27.1424C13.4423 27.4644 13.1648 27.852 12.9712 28.2825C12.7777 28.713 12.6719 29.1777 12.6601 29.6496C12.6483 30.1214 12.7307 30.5909 12.9025 31.0305C13.0743 31.4702 13.332 31.8711 13.6606 32.21C13.9892 32.5488 14.3821 32.8187 14.8163 33.0039C15.2504 33.1891 15.7172 33.2858 16.1892 33.2885H31.2776C31.6551 33.2876 32.0282 33.2065 32.3719 33.0504C32.7157 32.8944 33.0224 32.667 33.2716 32.3834C33.5208 32.0998 33.7069 31.7664 33.8174 31.4054C33.9279 31.0444 33.9604 30.6641 33.9127 30.2895C33.8651 29.915 33.7383 29.5549 33.5408 29.2331C33.3433 28.9114 33.0797 28.6353 32.7673 28.4231C32.455 28.211 32.1012 28.0678 31.7292 28.0028C31.3573 27.9379 30.9758 27.9529 30.6101 28.0466C30.4779 28.0805 30.3397 28.0834 30.2062 28.0552C30.0727 28.0269 29.9475 27.9683 29.8404 27.8838C29.7332 27.7993 29.647 27.6912 29.5884 27.568C29.5298 27.4448 29.5004 27.3097 29.5025 27.1733V27.0756Z" fill="#FAFCFF"/>
</svg>
