<svg width="293" height="56" viewBox="0 0 293 56" fill="none" xmlns="http://www.w3.org/2000/svg">
<g clip-path="url(#clip0_142_1171)">
<path d="M76.0289 14.1429C74.299 14.1429 72.6221 14.3785 71.032 14.8111C66.8397 6.05233 57.877 0 47.5024 0C37.1278 0 28.1651 6.05233 23.9729 14.8111C22.3779 14.3785 20.7058 14.1429 18.9759 14.1429C8.49531 14.1429 0 22.6181 0 33.0691C0 33.3623 0.00963733 33.6507 0.0240933 33.9392C0.799899 49.8512 21.0238 49.7791 43.4692 27.6705C44.4811 26.5456 45.5364 25.3967 46.611 24.2574L42.8428 21.3442L33.2777 14.8592C33.1235 14.7583 33.1042 14.5419 33.2343 14.4121L34.2848 13.3593C34.5017 13.1382 34.8293 13.0565 35.1618 13.1334C35.1618 13.1334 48.5673 16.7629 52.4705 18.3397C57.4192 13.7151 63.4715 9.86447 64.2328 10.624C65.0375 11.4268 61.1007 17.359 56.47 22.272C58.0505 26.012 61.7608 39.6742 61.7608 39.6742C61.8379 40.0059 61.7512 40.3328 61.5344 40.5491L60.4791 41.5971C60.349 41.7269 60.1321 41.7077 60.0309 41.5539L53.5306 32.0115L50.5382 28.156C50.5044 28.1897 50.4659 28.2234 50.4273 28.257C34.7667 43.8806 48.4661 52 60.6285 52H76.0241C86.5047 52 94.9952 43.5248 94.9952 33.0739C94.9952 22.6229 86.4999 14.1477 76.0241 14.1477L76.0289 14.1429Z" fill="url(#paint0_linear_142_1171)"/>
<mask id="mask0_142_1171" style="mask-type:luminance" maskUnits="userSpaceOnUse" x="0" y="0" width="95" height="52">
<path d="M76.0289 14.1429C74.299 14.1429 72.6221 14.3785 71.032 14.8111C66.8397 6.05233 57.877 0 47.5024 0C37.1278 0 28.1651 6.05233 23.9729 14.8111C22.3779 14.3785 20.7058 14.1429 18.9759 14.1429C8.49531 14.1429 0 22.6181 0 33.0691C0 33.3623 0.00963733 33.6507 0.0240933 33.9392C0.799899 49.8512 21.0238 49.7791 43.4692 27.6705C44.4811 26.5456 45.5364 25.3967 46.611 24.2574L42.8428 21.3442L33.2777 14.8592C33.1235 14.7583 33.1042 14.5419 33.2343 14.4121L34.2848 13.3593C34.5017 13.1382 34.8293 13.0565 35.1618 13.1334C35.1618 13.1334 48.5673 16.7629 52.4705 18.3397C57.4192 13.7151 63.4715 9.86447 64.2328 10.624C65.0375 11.4268 61.1007 17.359 56.47 22.272C58.0505 26.012 61.7608 39.6742 61.7608 39.6742C61.8379 40.0059 61.7512 40.3328 61.5344 40.5491L60.4791 41.5971C60.349 41.7269 60.1321 41.7077 60.0309 41.5539L53.5306 32.0115L50.5382 28.156C50.5044 28.1897 50.4659 28.2234 50.4273 28.257C34.7667 43.8806 48.4661 52 60.6285 52H76.0241C86.5047 52 94.9952 43.5248 94.9952 33.0739C94.9952 22.6229 86.4999 14.1477 76.0241 14.1477L76.0289 14.1429Z" fill="white"/>
</mask>
<g mask="url(#mask0_142_1171)">
<g style="mix-blend-mode:multiply">
<path d="M90.5864 50.0328C92.8418 36.4707 83.6498 23.6525 70.0555 21.4025C56.4613 19.1524 43.6126 28.3226 41.3572 41.8846C39.1018 55.4467 48.2938 68.2649 61.888 70.515C75.4823 72.765 88.331 63.5948 90.5864 50.0328Z" fill="#00D6EE"/>
</g>
<g style="mix-blend-mode:multiply">
<path d="M20.0071 66.0851C32.7599 66.0851 43.0981 55.7714 43.0981 43.0488C43.0981 30.3262 32.7599 20.0125 20.0071 20.0125C7.25423 20.0125 -3.08398 30.3262 -3.08398 43.0488C-3.08398 55.7714 7.25423 66.0851 20.0071 66.0851Z" fill="#00D6EE"/>
</g>
</g>
</g>
<path d="M121.003 20.44V25.432H114.987V43H108.715V25.432H102.763V20.44H121.003ZM129.595 28.216C130.299 27.192 131.153 26.3813 132.155 25.784C133.158 25.1867 134.235 24.888 135.387 24.888V31.576H133.627C132.262 31.576 131.249 31.8427 130.587 32.376C129.926 32.9093 129.595 33.8373 129.595 35.16V43H123.323V25.048H129.595V28.216ZM136.612 34.008C136.612 32.152 136.942 30.5307 137.604 29.144C138.286 27.7573 139.204 26.6907 140.356 25.944C141.529 25.1973 142.83 24.824 144.26 24.824C145.497 24.824 146.564 25.0693 147.46 25.56C148.356 26.0507 149.049 26.712 149.54 27.544V25.048H155.812V43H149.54V40.504C149.049 41.336 148.345 41.9973 147.428 42.488C146.532 42.9787 145.476 43.224 144.26 43.224C142.83 43.224 141.529 42.8507 140.356 42.104C139.204 41.3573 138.286 40.2907 137.604 38.904C136.942 37.496 136.612 35.864 136.612 34.008ZM149.54 34.008C149.54 32.856 149.22 31.9493 148.58 31.288C147.961 30.6267 147.193 30.296 146.276 30.296C145.337 30.296 144.558 30.6267 143.94 31.288C143.321 31.928 143.012 32.8347 143.012 34.008C143.012 35.16 143.321 36.0773 143.94 36.76C144.558 37.4213 145.337 37.752 146.276 37.752C147.193 37.752 147.961 37.4213 148.58 36.76C149.22 36.0987 149.54 35.1813 149.54 34.008ZM167.994 37.08L171.354 25.048H178.042L171.866 43H164.058L157.882 25.048H164.57L167.994 37.08ZM197.319 33.816C197.319 34.3067 197.287 34.7973 197.223 35.288H185.351C185.415 36.2693 185.682 37.0053 186.151 37.496C186.642 37.9653 187.26 38.2 188.007 38.2C189.052 38.2 189.799 37.7307 190.247 36.792H196.935C196.658 38.0293 196.114 39.1387 195.303 40.12C194.514 41.08 193.511 41.8373 192.295 42.392C191.079 42.9467 189.735 43.224 188.263 43.224C186.492 43.224 184.914 42.8507 183.527 42.104C182.162 41.3573 181.084 40.2907 180.295 38.904C179.527 37.5173 179.143 35.8853 179.143 34.008C179.143 32.1307 179.527 30.5093 180.295 29.144C181.063 27.7573 182.13 26.6907 183.495 25.944C184.882 25.1973 186.471 24.824 188.263 24.824C190.034 24.824 191.602 25.1867 192.967 25.912C194.332 26.6373 195.399 27.6827 196.167 29.048C196.935 30.392 197.319 31.9813 197.319 33.816ZM190.919 32.248C190.919 31.48 190.663 30.8827 190.151 30.456C189.639 30.008 188.999 29.784 188.231 29.784C187.463 29.784 186.834 29.9973 186.343 30.424C185.852 30.8293 185.532 31.4373 185.383 32.248H190.919ZM206.158 19.32V43H199.886V19.32H206.158ZM236.066 20.44V43H229.794V30.552L225.538 43H220.29L216.002 30.456V43H209.73V20.44H217.314L222.978 35.096L228.514 20.44H236.066ZM238.612 34.008C238.612 32.152 238.942 30.5307 239.604 29.144C240.286 27.7573 241.204 26.6907 242.356 25.944C243.529 25.1973 244.83 24.824 246.26 24.824C247.497 24.824 248.564 25.0693 249.46 25.56C250.356 26.0507 251.049 26.712 251.54 27.544V25.048H257.812V43H251.54V40.504C251.049 41.336 250.345 41.9973 249.428 42.488C248.532 42.9787 247.476 43.224 246.26 43.224C244.83 43.224 243.529 42.8507 242.356 42.104C241.204 41.3573 240.286 40.2907 239.604 38.904C238.942 37.496 238.612 35.864 238.612 34.008ZM251.54 34.008C251.54 32.856 251.22 31.9493 250.58 31.288C249.961 30.6267 249.193 30.296 248.276 30.296C247.337 30.296 246.558 30.6267 245.94 31.288C245.321 31.928 245.012 32.8347 245.012 34.008C245.012 35.16 245.321 36.0773 245.94 36.76C246.558 37.4213 247.337 37.752 248.276 37.752C249.193 37.752 249.961 37.4213 250.58 36.76C251.22 36.0987 251.54 35.1813 251.54 34.008ZM271.978 37.656V43H269.258C264.671 43 262.378 40.728 262.378 36.184V30.264H260.17V25.048H262.378V20.696H268.682V25.048H271.946V30.264H268.682V36.28C268.682 36.7707 268.788 37.1227 269.002 37.336C269.236 37.5493 269.62 37.656 270.154 37.656H271.978ZM292.007 33.816C292.007 34.3067 291.975 34.7973 291.911 35.288H280.039C280.103 36.2693 280.369 37.0053 280.839 37.496C281.329 37.9653 281.948 38.2 282.695 38.2C283.74 38.2 284.487 37.7307 284.935 36.792H291.623C291.345 38.0293 290.801 39.1387 289.991 40.12C289.201 41.08 288.199 41.8373 286.983 42.392C285.767 42.9467 284.423 43.224 282.951 43.224C281.18 43.224 279.601 42.8507 278.215 42.104C276.849 41.3573 275.772 40.2907 274.983 38.904C274.215 37.5173 273.831 35.8853 273.831 34.008C273.831 32.1307 274.215 30.5093 274.983 29.144C275.751 27.7573 276.817 26.6907 278.183 25.944C279.569 25.1973 281.159 24.824 282.951 24.824C284.721 24.824 286.289 25.1867 287.655 25.912C289.02 26.6373 290.087 27.6827 290.855 29.048C291.623 30.392 292.007 31.9813 292.007 33.816ZM285.607 32.248C285.607 31.48 285.351 30.8827 284.839 30.456C284.327 30.008 283.687 29.784 282.919 29.784C282.151 29.784 281.521 29.9973 281.031 30.424C280.54 30.8293 280.22 31.4373 280.071 32.248H285.607Z" fill="#FAFCFF"/>
<defs>
<linearGradient id="paint0_linear_142_1171" x1="0" y1="25.9976" x2="95" y2="25.9976" gradientUnits="userSpaceOnUse">
<stop stop-color="#00D6EE"/>
<stop offset="1" stop-color="#009AE1"/>
</linearGradient>
<clipPath id="clip0_142_1171">
<rect width="95" height="52" fill="white"/>
</clipPath>
</defs>
</svg>
