<?xml version="1.0" encoding="UTF-8"?><svg id="Layer_1" xmlns="http://www.w3.org/2000/svg" xmlns:xlink="http://www.w3.org/1999/xlink" viewBox="0 0 1040 1080"><defs><style>.cls-1{fill:url(#linear-gradient-75);}.cls-2{fill:url(#linear-gradient-119);}.cls-3{opacity:.65;}.cls-3,.cls-4,.cls-5,.cls-6{fill:snow;}.cls-3,.cls-4,.cls-6{isolation:isolate;}.cls-7{fill:url(#linear-gradient-2);}.cls-8{fill:url(#linear-gradient-51);}.cls-9{fill:url(#linear-gradient-122);}.cls-10{fill:url(#linear-gradient-17);}.cls-11{fill:url(#linear-gradient-87);}.cls-12{fill:url(#linear-gradient-93);}.cls-13{fill:url(#linear-gradient-92);}.cls-14{fill:url(#linear-gradient-80);}.cls-15{fill:url(#linear-gradient-109);}.cls-16{fill:url(#linear-gradient-43);}.cls-17{fill:url(#linear-gradient-15);}.cls-18{fill:url(#linear-gradient-58);}.cls-19{fill:url(#linear-gradient-69);}.cls-20{fill:url(#linear-gradient-81);}.cls-21{fill:url(#linear-gradient-18);}.cls-22{fill:url(#linear-gradient-56);}.cls-23{fill:url(#linear-gradient-40);}.cls-24{fill:url(#linear-gradient-52);}.cls-25{fill:url(#linear-gradient-28);}.cls-26{fill:url(#linear-gradient-14);}.cls-27{fill:url(#linear-gradient-36);}.cls-28{fill:url(#linear-gradient-78);}.cls-29{fill:url(#linear-gradient-20);}.cls-30{fill:url(#linear-gradient-6);}.cls-31{fill:url(#linear-gradient-53);}.cls-32{fill:url(#linear-gradient-91);}.cls-33{fill:url(#linear-gradient-60);}.cls-34{fill:url(#linear-gradient-108);}.cls-35{fill:url(#linear-gradient-84);}.cls-36{fill:url(#linear-gradient-104);}.cls-37{fill:url(#linear-gradient-35);}.cls-38{fill:url(#linear-gradient-48);}.cls-39{fill:url(#linear-gradient-32);}.cls-40{fill:url(#linear-gradient-120);}.cls-41{fill:url(#linear-gradient-97);}.cls-42{fill:url(#linear-gradient-11);}.cls-43{fill:url(#linear-gradient-50);}.cls-44{fill:url(#linear-gradient-106);}.cls-45{fill:url(#linear-gradient-111);}.cls-46{fill:url(#linear-gradient-63);}.cls-47{fill:url(#linear-gradient-67);}.cls-48{fill:url(#linear-gradient-95);}.cls-49{fill:url(#linear-gradient-86);}.cls-50{fill:url(#linear-gradient-39);}.cls-51{fill:url(#linear-gradient-110);}.cls-52{fill:url(#linear-gradient-10);}.cls-53{fill:#91b3fa;}.cls-54{fill:#bcdfff;}.cls-55{fill:url(#linear-gradient-59);}.cls-56{opacity:.68;}.cls-57{fill:url(#linear-gradient-117);}.cls-58{fill:url(#linear-gradient-49);}.cls-59{fill:url(#linear-gradient-37);}.cls-60{fill:url(#linear-gradient-82);}.cls-61{fill:url(#linear-gradient-16);}.cls-62{fill:url(#linear-gradient-31);}.cls-63{fill:url(#linear-gradient-85);}.cls-64{fill:url(#linear-gradient-112);}.cls-65{fill:#7d97f4;}.cls-66{fill:url(#linear-gradient-61);}.cls-67{fill:url(#linear-gradient-114);}.cls-68{fill:url(#linear-gradient-68);}.cls-69{fill:url(#linear-gradient-103);}.cls-70{fill:url(#linear-gradient-62);}.cls-71{fill:url(#linear-gradient-107);}.cls-72{fill:url(#linear-gradient-41);}.cls-73{fill:url(#linear-gradient-76);}.cls-74{fill:url(#linear-gradient-98);}.cls-75{fill:url(#linear-gradient-21);}.cls-76{fill:url(#linear-gradient-72);}.cls-77{fill:url(#linear-gradient-25);}.cls-78{fill:url(#linear-gradient-121);}.cls-79{fill:url(#linear-gradient-89);}.cls-80{fill:url(#linear-gradient-5);}.cls-81{fill:url(#linear-gradient-64);}.cls-82{fill:url(#linear-gradient-102);}.cls-83{fill:url(#linear-gradient-83);}.cls-84{fill:url(#linear-gradient-54);}.cls-85{fill:#535c9b;}.cls-86{fill:url(#linear-gradient-45);}.cls-87{fill:url(#linear-gradient-113);}.cls-88{fill:url(#linear-gradient-55);}.cls-89{clip-path:url(#clippath);}.cls-90{fill:url(#linear-gradient-34);}.cls-91{fill:url(#linear-gradient-118);}.cls-92{fill:url(#linear-gradient-65);}.cls-93{fill:url(#linear-gradient-70);}.cls-94{fill:none;}.cls-95{fill:url(#linear-gradient-79);}.cls-96{fill:url(#linear-gradient-88);}.cls-97{fill:url(#linear-gradient-7);}.cls-98{fill:url(#linear-gradient-66);}.cls-99{fill:url(#linear-gradient-96);}.cls-100{fill:url(#linear-gradient-24);}.cls-101{fill:url(#linear-gradient-73);}.cls-102{fill:url(#linear-gradient-100);}.cls-103{fill:url(#linear-gradient-105);}.cls-104{fill:url(#linear-gradient-9);}.cls-105{fill:url(#linear-gradient-22);}.cls-106{fill:url(#linear-gradient-74);}.cls-107{fill:url(#linear-gradient-42);}.cls-108{mask:url(#mask);}.cls-109{fill:url(#linear-gradient-99);}.cls-110{fill:#212332;fill-rule:evenodd;}.cls-111{fill:url(#linear-gradient-3);}.cls-112{fill:url(#linear-gradient);}.cls-113{fill:url(#linear-gradient-27);}.cls-114{fill:url(#linear-gradient-116);}.cls-4{opacity:.89;}.cls-115{fill:url(#linear-gradient-33);}.cls-116{fill:url(#linear-gradient-38);}.cls-117{fill:url(#linear-gradient-94);}.cls-118{fill:url(#linear-gradient-29);}.cls-119{fill:url(#linear-gradient-30);}.cls-120{fill:#bdd0fb;}.cls-121{fill:url(#linear-gradient-23);}.cls-122{fill:url(#linear-gradient-19);}.cls-123{fill:url(#linear-gradient-71);}.cls-124{fill:url(#linear-gradient-4);}.cls-125{fill:url(#linear-gradient-77);}.cls-126{fill:url(#linear-gradient-115);}.cls-127{fill:url(#linear-gradient-8);}.cls-128{fill:url(#linear-gradient-90);}.cls-129{fill:url(#linear-gradient-44);}.cls-130{fill:url(#linear-gradient-57);}.cls-131{fill:url(#linear-gradient-47);}.cls-132{fill:url(#linear-gradient-46);}.cls-133{fill:url(#linear-gradient-12);}.cls-134{fill:url(#linear-gradient-13);}.cls-6{opacity:.66;}.cls-135{fill:url(#linear-gradient-26);}.cls-136{fill:url(#linear-gradient-101);}</style><clipPath id="clippath"><rect class="cls-94" y=".5" width="1040" height="1080"/></clipPath><linearGradient id="linear-gradient" x1="105.93" y1="680.29" x2="-152.41" y2="858.3" gradientTransform="translate(287 1160) scale(1 -1)" gradientUnits="userSpaceOnUse"><stop offset="0" stop-color="#4042e2"/><stop offset="1" stop-color="#4f52ff"/></linearGradient><linearGradient id="linear-gradient-2" x1="153.27" y1="583.51" x2="13.36" y2="741.17" xlink:href="#linear-gradient"/><linearGradient id="linear-gradient-3" x1="180.42" y1="608.04" x2="300.45" y2="395.05" gradientTransform="translate(287 1160) scale(1 -1)" gradientUnits="userSpaceOnUse"><stop offset="0" stop-color="#bcdfff"/><stop offset="1" stop-color="#44a5ff"/></linearGradient><linearGradient id="linear-gradient-4" x1="548.48" y1="447.1" x2="538.98" y2="262.25" gradientTransform="translate(287 1160) scale(1 -1)" gradientUnits="userSpaceOnUse"><stop offset="0" stop-color="#bcdfff"/><stop offset="1" stop-color="#52acff"/></linearGradient><linearGradient id="linear-gradient-5" x1="337.56" y1="348.75" x2="397.62" y2="281.72" gradientTransform="translate(287 1160) scale(1 -1)" gradientUnits="userSpaceOnUse"><stop offset="0" stop-color="#add8ff"/><stop offset="1" stop-color="#fafafa"/></linearGradient><linearGradient id="linear-gradient-6" x1="572.05" y1="384.16" x2="530.05" y2="383.66" gradientTransform="translate(287 1160) scale(1 -1)" gradientUnits="userSpaceOnUse"><stop offset="0" stop-color="#add8ff"/><stop offset="1" stop-color="#fff"/></linearGradient><linearGradient id="linear-gradient-7" x1="610.86" y1="384.29" x2="662.46" y2="310.66" gradientTransform="translate(287 1160) scale(1 -1)" gradientUnits="userSpaceOnUse"><stop offset="0" stop-color="#222433"/><stop offset="1" stop-color="#3876b4"/></linearGradient><linearGradient id="linear-gradient-8" x1="385.75" y1="372.76" x2="434.14" y2="282.67" xlink:href="#linear-gradient-7"/><linearGradient id="linear-gradient-9" x1="514.69" y1="514.85" x2="631.7" y2="394.83" xlink:href="#linear-gradient-7"/><linearGradient id="linear-gradient-10" x1="475.84" y1="482.48" x2="562.7" y2="393.37" xlink:href="#linear-gradient-7"/><linearGradient id="linear-gradient-11" x1="462.79" y1="464.32" x2="503.11" y2="410.8" xlink:href="#linear-gradient-7"/><linearGradient id="linear-gradient-12" x1="524.68" y1="411.28" x2="483.68" y2="394.28" xlink:href="#linear-gradient-6"/><linearGradient id="linear-gradient-13" x1="697.74" y1="354.98" x2="774.82" y2="291.79" gradientTransform="translate(287 1160) scale(1 -1)" gradientUnits="userSpaceOnUse"><stop offset="0" stop-color="#fff"/><stop offset="1" stop-color="#4ca9ff"/></linearGradient><linearGradient id="linear-gradient-14" x1="422.43" y1="469.91" x2="662.92" y2="470.99" xlink:href="#linear-gradient-7"/><linearGradient id="linear-gradient-15" x1="468.5" y1="503.59" x2="662" y2="503.85" xlink:href="#linear-gradient-7"/><linearGradient id="linear-gradient-16" x1="242.37" y1="332.5" x2="132.33" y2="211.26" xlink:href="#linear-gradient"/><linearGradient id="linear-gradient-17" x1="195.99" y1="300.95" x2="204.48" y2="301.01" gradientTransform="translate(287 1160) scale(1 -1)" gradientUnits="userSpaceOnUse"><stop offset="0" stop-color="#ff928e"/><stop offset="1" stop-color="#feb3b1"/></linearGradient><linearGradient id="linear-gradient-18" x1="238.66" y1="317.89" x2="237.72" y2="295.23" gradientTransform="translate(287 1160) scale(1 -1)" gradientUnits="userSpaceOnUse"><stop offset="0" stop-color="#09005d"/><stop offset="1" stop-color="#1a0f91"/></linearGradient><linearGradient id="linear-gradient-19" x1="225.88" y1="286.22" x2="281.16" y2="304.44" xlink:href="#linear-gradient"/><linearGradient id="linear-gradient-20" x1="229.68" y1="308.19" x2="226.15" y2="277.44" xlink:href="#linear-gradient-17"/><linearGradient id="linear-gradient-21" x1="210.59" y1="406" x2="210.59" y2="262.56" xlink:href="#linear-gradient-18"/><linearGradient id="linear-gradient-22" x1="203.47" y1="475.38" x2="205.7" y2="494.42" xlink:href="#linear-gradient-17"/><linearGradient id="linear-gradient-23" x1="206.39" y1="496.69" x2="205.54" y2="521.22" xlink:href="#linear-gradient-17"/><linearGradient id="linear-gradient-24" x1="217.88" y1="497.09" x2="217.04" y2="521.62" xlink:href="#linear-gradient-17"/><linearGradient id="linear-gradient-25" x1="194.96" y1="496.3" x2="194.1" y2="520.82" xlink:href="#linear-gradient-17"/><linearGradient id="linear-gradient-26" x1="222.7" y1="517.43" x2="185.96" y2="481.55" xlink:href="#linear-gradient-18"/><linearGradient id="linear-gradient-27" x1="225.71" y1="542.62" x2="191.49" y2="501.4" xlink:href="#linear-gradient-18"/><linearGradient id="linear-gradient-28" x1="150.59" y1="374.56" x2="154.34" y2="374.56" xlink:href="#linear-gradient-18"/><linearGradient id="linear-gradient-29" x1="169.3" y1="374.56" x2="173.05" y2="374.56" xlink:href="#linear-gradient-18"/><linearGradient id="linear-gradient-30" x1="165.29" y1="405.72" x2="160.57" y2="380.61" xlink:href="#linear-gradient-18"/><linearGradient id="linear-gradient-31" x1="149.43" y1="268.05" x2="153.94" y2="268.05" xlink:href="#linear-gradient-18"/><linearGradient id="linear-gradient-32" x1="171.89" y1="267.59" x2="176.39" y2="267.59" xlink:href="#linear-gradient-18"/><linearGradient id="linear-gradient-33" x1="216.95" y1="425.68" x2="206.61" y2="439.16" xlink:href="#linear-gradient-18"/><linearGradient id="linear-gradient-34" x1="234.61" y1="486.36" x2="227.31" y2="474.65" xlink:href="#linear-gradient-18"/><linearGradient id="linear-gradient-35" x1="198.12" y1="448.75" x2="207.19" y2="435.22" xlink:href="#linear-gradient-18"/><linearGradient id="linear-gradient-36" x1="192.6" y1="448.69" x2="196.71" y2="442.57" xlink:href="#linear-gradient-18"/><linearGradient id="linear-gradient-37" x1="199.51" y1="455.91" x2="207.91" y2="443.38" xlink:href="#linear-gradient-18"/><linearGradient id="linear-gradient-38" x1="214.96" y1="498.61" x2="207.66" y2="486.91" xlink:href="#linear-gradient-18"/><linearGradient id="linear-gradient-39" x1="230.81" y1="488.73" x2="223.51" y2="477.03" xlink:href="#linear-gradient-18"/><linearGradient id="linear-gradient-40" x1="212.48" y1="435.71" x2="211.02" y2="432.74" xlink:href="#linear-gradient-17"/><linearGradient id="linear-gradient-41" x1="154.94" y1="463.13" x2="183.96" y2="270.87" xlink:href="#linear-gradient-17"/><linearGradient id="linear-gradient-42" x1="337.09" y1="531.89" x2="297.82" y2="497.34" xlink:href="#linear-gradient-18"/><linearGradient id="linear-gradient-43" x1="312.42" y1="452.63" x2="205.39" y2="432.12" xlink:href="#linear-gradient-17"/><linearGradient id="linear-gradient-44" x1="327.4" y1="475.24" x2="216.13" y2="453.92" xlink:href="#linear-gradient-17"/><linearGradient id="linear-gradient-45" x1="274.3" y1="297.79" x2="292.93" y2="260.54" xlink:href="#linear-gradient"/><linearGradient id="linear-gradient-46" x1="281.32" y1="506.33" x2="285.85" y2="460.02" xlink:href="#linear-gradient-17"/><linearGradient id="linear-gradient-47" x1="1001.46" y1="1842" x2="983.12" y2="1808.11" xlink:href="#linear-gradient-17"/><linearGradient id="linear-gradient-48" x1="323.17" y1="547.72" x2="283.9" y2="513.17" xlink:href="#linear-gradient-18"/><linearGradient id="linear-gradient-49" x1="1010.49" y1="1837.12" x2="992.14" y2="1803.23" xlink:href="#linear-gradient-17"/><linearGradient id="linear-gradient-50" x1="265.7" y1="366.22" x2="324.6" y2="305.07" xlink:href="#linear-gradient-17"/><linearGradient id="linear-gradient-51" x1="320.95" y1="281.58" x2="267.48" y2="449.21" xlink:href="#linear-gradient-18"/><linearGradient id="linear-gradient-52" x1="334.58" y1="387.46" x2="316.21" y2="370.86" xlink:href="#linear-gradient-17"/><linearGradient id="linear-gradient-53" x1="256.06" y1="357.07" x2="169.22" y2="231.91" xlink:href="#linear-gradient-18"/><linearGradient id="linear-gradient-54" x1="411.37" y1="117.36" x2="383.59" y2="158.64" xlink:href="#linear-gradient"/><linearGradient id="linear-gradient-55" x1="218.79" y1="429.42" x2="328.72" y2="429.42" gradientTransform="translate(287 1160) scale(1 -1)" gradientUnits="userSpaceOnUse"><stop offset="0" stop-color="#dae3fe"/><stop offset="1" stop-color="#e9effd"/></linearGradient><linearGradient id="linear-gradient-56" x1="304.64" y1="463.34" x2="259.52" y2="372.35" xlink:href="#linear-gradient"/><linearGradient id="linear-gradient-57" x1="267.92" y1="481.55" x2="222.8" y2="390.57" xlink:href="#linear-gradient"/><linearGradient id="linear-gradient-58" x1="280.33" y1="475.4" x2="235.21" y2="384.41" xlink:href="#linear-gradient"/><linearGradient id="linear-gradient-59" x1="304.98" y1="463.17" x2="259.86" y2="372.19" xlink:href="#linear-gradient"/><linearGradient id="linear-gradient-60" x1="322.72" y1="454.37" x2="277.6" y2="363.39" xlink:href="#linear-gradient"/><linearGradient id="linear-gradient-61" x1="297.22" y1="467.02" x2="252.1" y2="376.04" xlink:href="#linear-gradient"/><linearGradient id="linear-gradient-62" x1="287.84" y1="471.67" x2="242.72" y2="380.69" xlink:href="#linear-gradient"/><linearGradient id="linear-gradient-63" x1="282.56" y1="474.3" x2="237.43" y2="383.31" xlink:href="#linear-gradient"/><linearGradient id="linear-gradient-64" x1="317.32" y1="457.06" x2="272.19" y2="366.07" xlink:href="#linear-gradient"/><linearGradient id="linear-gradient-65" x1="317.97" y1="461.13" x2="308.49" y2="466.77" xlink:href="#linear-gradient-17"/><linearGradient id="linear-gradient-66" x1="217.27" y1="430.97" x2="221.62" y2="440.65" xlink:href="#linear-gradient-17"/><linearGradient id="linear-gradient-67" x1="444.12" y1="788.92" x2="352.33" y2="697.15" gradientTransform="translate(287 1160) scale(1 -1)" gradientUnits="userSpaceOnUse"><stop offset="0" stop-color="#bcdfff"/><stop offset="1" stop-color="#81a0c0"/></linearGradient><linearGradient id="linear-gradient-68" x1="208.4" y1="699.31" x2="545.35" y2="700.46" gradientTransform="translate(287 1160) scale(1 -1)" gradientUnits="userSpaceOnUse"><stop offset=".74" stop-color="#7cc0ff"/><stop offset="1" stop-color="#bcdfff"/></linearGradient><linearGradient id="linear-gradient-69" x1="257.99" y1="739.38" x2="201.1" y2="682.51" gradientTransform="translate(287 1160) scale(1 -1)" gradientUnits="userSpaceOnUse"><stop offset="0" stop-color="#44a5ff"/><stop offset="1" stop-color="#3773b0"/></linearGradient><linearGradient id="linear-gradient-70" x1="323.24" y1="766.82" x2="106.17" y2="549.81" xlink:href="#linear-gradient-69"/><linearGradient id="linear-gradient-71" x1="466.52" y1="735.53" x2="316.83" y2="585.87" gradientTransform="translate(287 1160) scale(1 -1)" gradientUnits="userSpaceOnUse"><stop offset="0" stop-color="#bcdfff"/><stop offset="1" stop-color="#212332"/></linearGradient><linearGradient id="linear-gradient-72" x1="443.43" y1="747.3" x2="40.46" y2="344.38" gradientTransform="translate(287 1160) scale(1 -1)" gradientUnits="userSpaceOnUse"><stop offset="0" stop-color="#acd8ff"/><stop offset="1" stop-color="#212332"/></linearGradient><linearGradient id="linear-gradient-73" x1="208.12" y1="717.47" x2="16.43" y2="580.27" gradientTransform="translate(287 1160) scale(1 -1)" gradientUnits="userSpaceOnUse"><stop offset="0" stop-color="#397bbd"/><stop offset="1" stop-color="#ff928e"/></linearGradient><linearGradient id="linear-gradient-74" x1="305.11" y1="954.77" x2="311.76" y2="808.13" xlink:href="#linear-gradient-18"/><linearGradient id="linear-gradient-75" x1="319.6" y1="955.48" x2="326.28" y2="808.85" xlink:href="#linear-gradient-18"/><linearGradient id="linear-gradient-76" x1="334.34" y1="956.09" x2="340.99" y2="809.45" xlink:href="#linear-gradient-18"/><linearGradient id="linear-gradient-77" x1="347.78" y1="956.76" x2="354.45" y2="810.12" xlink:href="#linear-gradient-18"/><linearGradient id="linear-gradient-78" x1="363.56" y1="957.41" x2="370.22" y2="810.78" xlink:href="#linear-gradient-18"/><linearGradient id="linear-gradient-79" x1="378.18" y1="958.08" x2="384.82" y2="811.43" xlink:href="#linear-gradient-18"/><linearGradient id="linear-gradient-80" x1="392.83" y1="958.74" x2="399.48" y2="812.1" xlink:href="#linear-gradient-18"/><linearGradient id="linear-gradient-81" x1="406.28" y1="959.35" x2="412.93" y2="812.71" xlink:href="#linear-gradient-18"/><linearGradient id="linear-gradient-82" x1="420.89" y1="960.01" x2="427.54" y2="813.38" xlink:href="#linear-gradient-18"/><linearGradient id="linear-gradient-83" x1="435.56" y1="960.68" x2="442.2" y2="814.04" xlink:href="#linear-gradient-18"/><linearGradient id="linear-gradient-84" x1="449" y1="961.29" x2="455.64" y2="814.64" xlink:href="#linear-gradient-18"/><linearGradient id="linear-gradient-85" x1="487.57" y1="963.02" x2="494.22" y2="816.39" xlink:href="#linear-gradient-18"/><mask id="mask" x="0" y=".5" width="1040" height="1080" maskUnits="userSpaceOnUse"><g id="mask1_18_2"><path class="cls-54" d="m0,.5v1080C496.5,1080.5,315.5.5,1040,.5H0Z"/></g></mask><linearGradient id="linear-gradient-86" x1="476.7" y1="596.92" x2="592.93" y2="596.92" xlink:href="#linear-gradient-55"/><linearGradient id="linear-gradient-87" x1="153.27" y1="583.51" x2="13.36" y2="741.17" xlink:href="#linear-gradient"/><linearGradient id="linear-gradient-88" x1="174.2" y1="624.99" x2="57.41" y2="891.64" gradientTransform="translate(287 1160) scale(1 -1)" gradientUnits="userSpaceOnUse"><stop offset="0" stop-color="#212332"/><stop offset="1" stop-color="#44a5ff"/></linearGradient><linearGradient id="linear-gradient-89" x1="557.48" y1="447.1" x2="547.98" y2="262.25" gradientTransform="translate(287 1160) scale(1 -1)" gradientUnits="userSpaceOnUse"><stop offset="0" stop-color="#fe7062"/><stop offset="1" stop-color="#ff928e"/></linearGradient><linearGradient id="linear-gradient-90" x1="346.56" y1="348.75" x2="406.62" y2="281.72" xlink:href="#linear-gradient-89"/><linearGradient id="linear-gradient-91" x1="536.17" y1="461.8" x2="545.79" y2="428.87" gradientTransform="translate(287 1160) scale(1 -1)" gradientUnits="userSpaceOnUse"><stop offset="0" stop-color="#e1473d"/><stop offset="1" stop-color="#e9605a"/></linearGradient><linearGradient id="linear-gradient-92" x1="569.57" y1="535" x2="585.81" y2="498.36" xlink:href="#linear-gradient-18"/><linearGradient id="linear-gradient-93" x1="462.87" y1="590.31" x2="787.98" y2="155.4" xlink:href="#linear-gradient-91"/><linearGradient id="linear-gradient-94" x1="367.48" y1="445.42" x2="383.72" y2="408.77" xlink:href="#linear-gradient-18"/><linearGradient id="linear-gradient-95" x1="307.69" y1="474.32" x2="632.8" y2="39.4" xlink:href="#linear-gradient-91"/><linearGradient id="linear-gradient-96" x1="543.12" y1="587.2" x2="571.57" y2="526.28" xlink:href="#linear-gradient-18"/><linearGradient id="linear-gradient-97" x1="480.6" y1="558.01" x2="509.04" y2="497.09" xlink:href="#linear-gradient-18"/><linearGradient id="linear-gradient-98" x1="446.5" y1="542.1" x2="474.94" y2="481.17" xlink:href="#linear-gradient-18"/><linearGradient id="linear-gradient-99" x1="463.04" y1="489" x2="484.94" y2="451.73" xlink:href="#linear-gradient-91"/><linearGradient id="linear-gradient-100" x1="706.74" y1="354.98" x2="783.82" y2="291.79" xlink:href="#linear-gradient-91"/><linearGradient id="linear-gradient-101" x1="465.57" y1="453.53" x2="1242.7" y2="563.61" xlink:href="#linear-gradient-18"/><linearGradient id="linear-gradient-102" x1="328.92" y1="493.19" x2="730.99" y2="510.05" xlink:href="#linear-gradient-89"/><linearGradient id="linear-gradient-103" x1="406.31" y1="796.93" x2="379.9" y2="740.46" xlink:href="#linear-gradient-91"/><linearGradient id="linear-gradient-104" x1="221.55" y1="698.87" x2="511.49" y2="698.87" xlink:href="#linear-gradient-89"/><linearGradient id="linear-gradient-105" x1="381.17" y1="859.77" x2="318.32" y2="791.46" xlink:href="#linear-gradient-89"/><linearGradient id="linear-gradient-106" x1="306.51" y1="772.4" x2="283.74" y2="736.88" xlink:href="#linear-gradient-89"/><linearGradient id="linear-gradient-107" x1="414.16" y1="762.14" x2="392.3" y2="706.58" xlink:href="#linear-gradient-91"/><linearGradient id="linear-gradient-108" x1="379.57" y1="786.89" x2="371.37" y2="751.36" xlink:href="#linear-gradient-89"/><linearGradient id="linear-gradient-109" x1="392.63" y1="828.33" x2="392.63" y2="763.65" xlink:href="#linear-gradient-17"/><linearGradient id="linear-gradient-110" x1="221.79" y1="714.1" x2="55.1" y2="594.8" xlink:href="#linear-gradient-89"/><linearGradient id="linear-gradient-111" x1="306.13" y1="920.45" x2="311.91" y2="792.94" xlink:href="#linear-gradient-18"/><linearGradient id="linear-gradient-112" x1="318.73" y1="921.07" x2="324.54" y2="793.56" xlink:href="#linear-gradient-18"/><linearGradient id="linear-gradient-113" x1="331.55" y1="921.6" x2="337.33" y2="794.09" xlink:href="#linear-gradient-18"/><linearGradient id="linear-gradient-114" x1="343.23" y1="922.18" x2="349.03" y2="794.67" xlink:href="#linear-gradient-18"/><linearGradient id="linear-gradient-115" x1="356.96" y1="922.75" x2="362.74" y2="795.24" xlink:href="#linear-gradient-18"/><linearGradient id="linear-gradient-116" x1="369.66" y1="923.33" x2="375.44" y2="795.81" xlink:href="#linear-gradient-18"/><linearGradient id="linear-gradient-117" x1="382.41" y1="923.9" x2="388.19" y2="796.39" xlink:href="#linear-gradient-18"/><linearGradient id="linear-gradient-118" x1="394.1" y1="924.43" x2="399.89" y2="796.92" xlink:href="#linear-gradient-18"/><linearGradient id="linear-gradient-119" x1="406.81" y1="925.01" x2="412.59" y2="797.5" xlink:href="#linear-gradient-18"/><linearGradient id="linear-gradient-120" x1="419.56" y1="925.59" x2="425.34" y2="798.07" xlink:href="#linear-gradient-18"/><linearGradient id="linear-gradient-121" x1="431.25" y1="926.12" x2="437.02" y2="798.6" xlink:href="#linear-gradient-18"/><linearGradient id="linear-gradient-122" x1="464.79" y1="927.62" x2="470.57" y2="800.12" xlink:href="#linear-gradient-18"/></defs><path class="cls-110" d="m1040,1080.5V.5c-396.37,0-521.71,323.26-635.25,616.07C310.76,858.97,224.87,1080.5,0,1080.5h1040Z"/><g class="cls-89"><g><path class="cls-53" d="m397.71,299.21c12.44-15.32,66.28-81.52,70.08-83.32,1.07-.51,2.17-.61,2.17-.61,2.21-.21,4.15.83,5.52,1.85,0,0,34.29,74.7,44.17,107.17l-117.63,16.72-4.3-41.81Z"/><path class="cls-65" d="m584.42,315.08c-10.65-16.63-21.12-29.24-29.07-37.96-7.22-7.93-22.91-24.04-46.39-40.28-12.06-8.34-22.99-14.5-31.55-18.9-1.42-1.09-3.59-2.38-6.38-2.63-.37-.03-.73-.04-1.08-.04,13.29,36.81,26.57,73.61,39.86,110.41,24.87-3.54,49.74-7.07,74.61-10.61h0Z"/><path class="cls-65" d="m368.58,259.39s10.68,1.11,28.45,10.42c17.76,9.31,72.59,53.93,72.59,53.93l-66.39,19.24-39.93-82.19s2.07-1.99,5.29-1.41h0Z"/><path class="cls-53" d="m314.21,337.16l44.2-70.74s3.41-6.07,7.28-6.62l36.6,67.8-89.59,12.74,1.52-3.17h0Z"/><path class="cls-53" d="m962.34,292.66l24.72-13.89c.98-.46,1.81-.5,1.96-.23.15.26-.29.96-1.15,1.57-8.08,4.89-16.16,9.79-24.24,14.67l-1.28-2.12h0Z"/><path class="cls-65" d="m770.16,490.63c2.56-6.36,36.93-55.49,53.79-75.32,16.85-19.82,46.06-46.59,54.65-54.47,8.59-7.87,74.73-52.2,74.73-52.2l-8.28-13.69s-62.41,34.59-80.96,41.01c-18.55,6.42-54.24,18.95-74.45,22.64-20.21,3.69-95.57,15.12-103.33,14.47-7.76-.65-19.39-5.36-19.39-5.36l26.22,43.32c1.86-1.74,3.91-3.31,6.17-4.68,17.49-10.59,40.25-5,50.84,12.5,10.59,17.49,4.99,40.26-12.5,50.85-2.26,1.37-4.61,2.46-7.01,3.3l.42.69,20.79,51.6s15.75-28.3,18.31-34.66Zm-2.84-102.53s14.11,3.75,42.74-12.52l9.96,16.46s-25.47,13.82-29.71,34.02l-22.99-37.97Z"/><path class="cls-53" d="m811.53,345.1l-5.61,3.4c-1.12.68-1.48,2.14-.8,3.27l33.28,54.98c.68,1.12,2.14,1.48,3.26.8l5.61-3.4c1.12-.68,1.48-2.14.8-3.27l-33.28-54.98c-.68-1.12-2.14-1.48-3.27-.8Z"/><path class="cls-53" d="m794.47,464.59l-60.98-100.75c-.74-1.22-.34-2.82.88-3.57l6.12-3.7c1.22-.74,2.82-.35,3.57.88l60.98,100.75c.74,1.22.35,2.82-.88,3.57l-6.12,3.7c-1.22.74-2.82.35-3.57-.88Z"/><path class="cls-53" d="m969.08,298.07c-.12,2.76-2.16,4.61-3.17,5.52-3,2.71-5.09,1.8-7.3,4.32-.55.63-1.13,2.22-2.26,5.37-2.25,6.29-2.47,7.79-4.2,8.96-1.74,1.17-3.6,1.06-4.08,1.03-3.82-.31-6.06-4.2-6.06-4.2l-4.93-8.14-1.35-2.23-4.93-8.14s-2.41-3.79-.92-7.32c.19-.44.96-2.14,2.8-3.14,1.83-.99,3.26-.49,9.88.43,3.32.46,4.99.69,5.8.49,3.26-.8,3.42-3.07,7.22-4.47,1.28-.47,3.86-1.42,6.36-.24,2.32,1.09,7.23,9.2,7.12,11.76h0Z"/><path class="cls-112" d="m349.76,421.79l-50.6,44.91c-2.25,2-5.74,1.79-7.74-.46l-52.46-59.12c-2-2.25-1.79-5.74.46-7.74l48.88-43.38c2.25-2,5.74-1.79,7.74.46l53.99,60.85c1.16,1.31,1.04,3.32-.27,4.48h0Z"/><path class="cls-7" d="m360.41,413.23c-6.05-6.82-16.58-7.44-23.39-1.39l-50.22,44.58c-6.82,6.05-5.16,14.55.89,21.37l2.89,3.26,72.73-64.55-2.89-3.26Z"/><path class="cls-53" d="m166.98,239.62c-3.26-1.44-8.52-4.2-13.44-2.5-.58.2-1.17,1.51-2.09,1.42-.94-.09-1.6-1.33-2.02-2.41-.41,1.1-1.1,2.55-2.3,3.97-2.84,3.36-6.58,4.3-7.99,4.58.53.98,1.05,1.97,1.58,2.95-2.59,2.19-5.19,4.37-7.78,6.56,20.68,31.92,48.33,48.48,67.84,41.9,3.82-1.29,8.6-3.9,13.38-9.53-.6-.58-4.03-3.89-4.03-3.89,0,0-8.35-8.92-12.49-14.57-4.14-5.65-16.86-22.36-30.65-28.47h0Z"/><path class="cls-65" d="m133.25,253.93c-1.88.45-6.15,2-12.1,1.4-1.55-.16-5.27.19-9.09-2.53-2.37-1.69-23.48-24.49-26.26-27.13-1.24-1.18-2.09-3.59-4.47-7.83-7.98-14.18-8.98-17.15-13.3-20.17-4.23-2.96-8.43-3.48-10.5-4.03-2.67-.71-4.63-.87-5.96.22-2.81,2.3-1.49,9.95,1.62,15.59,2.8,5.07,7.9,8.84,18.1,16.37,4.75,3.51,10.14,7.19,9.46,10.7-.26,1.33-1.64,3.94-.77,6.39.23.66.62,1.28.62,1.28.91,1.42,2.13,2.22,2.79,2.59,3.71,2.05,6.9-.4,10.19-.01,5.77.69,5.13,9.31,12.59,16.81,6.11,6.15,10.32,4.17,23.27,11.99,5.42,3.27,9.46,6.51,11.94,8.64,18.77,18.81,32.19,34.04,41.19,44.78,14.31,17.08,16,21.06,26.84,31.57,4.7,4.56,9.39,8.66,14.11,15.91,5.95,9.14,8.56,18.09,9.84,24.35l54.67-49.54c-4.96-1.67-12.17-4.64-19.73-10.03-9.41-6.71-15.39-14.34-22.59-23.54-11.38-14.53-11.76-19.07-18.57-22.58-1.06-.55-8.55-4.29-12.93-8.5-.01-.01-.04-.04-.06-.06-20.81,1.49-34.34-3.47-43.04-8.57-14.69-8.62-26.33-26.8-37.86-24.06h0Z"/><path class="cls-53" d="m142.6,214.61c-.16-.16-.32-.3-.45-.42,2.4-3.49,6.47-9.68,5.48-10.55-1.04-.92-7.2,4.43-10.28,7.22-1.09-.34-2.18-.69-3.27-1.04-.44-1.95-2.71-11.85-4.34-11.67-1.62.17-1.78,10.22-1.81,12.24-1.48.81-2.95,1.62-4.42,2.43-5.83-4.38-12.67-9.15-13.62-8.13-.89.96,3.76,6.78,8.65,12.38-.91,1.34-1.83,2.68-2.74,4.02-5.44-.6-12.31-1.14-12.55-.01-.25,1.16,6.71,3.67,11.88,5.37.42,1.29.83,2.59,1.25,3.88-1.76,1.86-7.38,7.87-6.49,8.95.86,1.04,7.29-2.94,9.56-4.38,1.32,1.48,3.19,3.3,5.71,5.01,5.68,3.85,17.1,8.77,22.55,4.36,6.33-5.12,3.18-21.68-5.1-29.65h0Z"/><path class="cls-53" d="m295.02,342.98l-69.29,61.51c-1.58,1.4-1.72,3.82-.32,5.4l10.27,11.57c1.4,1.58,3.82,1.72,5.39.32l69.29-61.51c1.58-1.4,1.72-3.82.32-5.39l-10.27-11.57c-1.4-1.58-3.82-1.72-5.39-.32Z"/><path class="cls-65" d="m686.73,235.45l-6.73,9.92,18.72,12.7,6.73-9.92-18.72-12.7Z"/><path class="cls-65" d="m672.81,385.83l-95.69-64.93c-1.58-1.07-2-3.25-.93-4.82l6.01-8.85c1.07-1.58,3.25-2,4.82-.92l95.69,64.93c1.58,1.07,2,3.25.92,4.82l-6.01,8.85c-1.07,1.58-3.25,2-4.82.92Z"/><path class="cls-65" d="m688.64,380.05l-112.01-76c-1.01-.68-1.27-2.06-.59-3.07l3.82-5.62c.68-1.01,2.06-1.27,3.07-.59l112.01,76c1.01.68,1.27,2.06.59,3.07l-3.82,5.62c-.68,1.01-2.06,1.27-3.07.59Z"/><path class="cls-65" d="m703.33,304.31c9.58-12.52,13.88-13.34,15.71-18.32,7.05-19.26-48.8-56.03-62.69-51.84-7.22,2.18-11.72,6.81-11.72,6.81-5.81,5.83-4.09,9.44-9.29,16.11-5.44,6.97-9.43,5.75-15.29,12.05-3.26,3.51-7.07,9.34-8.68,19.25,25.89,16.65,49.31,34.38,75.2,51.03.89-5.2,5.13-13.84,9.12-22.23,1.58-3.29,3.75-7.77,7.64-12.86Z"/><path class="cls-53" d="m681.55,242.28c-1.56-.22-5.91-.74-12.16,6.3-2.87,4.23-5.74,8.47-8.62,12.71-5.45,8.03-3.34,19.06,4.69,24.51,8.03,5.45,19.05,3.34,24.51-4.69l8.62-12.71c4.22-7.6,2.75-11.65,2.04-13.07-1.08-2.18-16.72-12.71-19.08-13.05Z"/><path class="cls-53" d="m693.31,245.68c-9.21-6.25-12.29-17.94-6.84-25.97l8.61-12.7c.46-.82,5.47-9.32,15.4-10.21,6.96-.62,12.01,2.89,13.35,3.89,1.05.62,7.38,4.56,9.04,12.67,1.84,8.98-3.6,15.59-4.29,16.39l-8.61,12.7c-5.45,8.03-17.44,9.49-26.66,3.24Z"/><path class="cls-65" d="m616.89,300.63c.37-5.81,7.47-11.49,14.21-12.32,4.47-.55,9.37,1.35,13.14,4,4.63,3.25,3.95,5.54,10.33,10.56,4.11,3.24,6.59,4.01,7.49,4.26,4.32,1.2,7.71.2,9.6-.05,8.06-1.06,19.75,5.35,21.64,14.36,1.39,6.61-2.62,14.11-9.49,19.13-8.79-3.09-21.06-7.9-35.13-15.09-19.41-9.92-32.3-16.69-31.79-24.85h0Z"/><path class="cls-53" d="m679.88,367.33l-85.58-58.06c-8-8.06-10.35-18.3-6.55-24.51,4.19-6.84,14.89-7.23,21.32-6.04,19,3.51,16.01,23.76,38.13,37.84,16.19,10.31,39.24,13.12,51.31,23.3,5.7,4.8,6.73,9.38,6.97,10.62.88,4.68-.78,9.05-.78,9.05-.45,1.17-1.04,2.31-1.76,3.39-5.12,7.55-15.5,9.54-23.06,4.41Z"/><path class="cls-65" d="m731.27,225.49c.83-1.64,2.56-5.65,1.88-10.77-.39-2.94-1.44-5.2-2.25-6.62.07-.3.21-.89.41-1.62,1.6-5.93,3.47-8.61,2.18-10.63-.09-.14-.27-.41-.6-.68-2.58-1.75-5.16-3.5-7.74-5.25-.16-.1-.42-.24-.74-.33-2.14-.61-4.11,2.24-9.18,6.26-.56.45-1.02.79-1.24.96-1.55-.14-3.58-.13-5.86.38-5.4,1.22-8.82,4.54-10.23,6.1,4.2.76,11.02,2.55,18.2,7.13,8.03,5.13,12.78,11.36,15.19,15.08h0Z"/><path class="cls-111" d="m758.55,574.06c6.41-146.22-116.32-270.37-274.13-277.29-157.81-6.92-290.93,106.01-297.34,252.23-6.41,146.22,116.33,270.37,274.13,277.29,157.81,6.92,290.93-106.01,297.34-252.23Z"/><g class="cls-56"><path class="cls-5" d="m545.92,562.84c-.07,46.74-3.27,93.58-11.51,139.66-2.08,11.51-4.5,22.96-7.38,34.31-2.89,11.34-6.22,22.59-10.31,33.58-4.12,10.96-8.9,21.77-15.38,31.65-3.27,4.9-6.97,9.6-11.54,13.46-2.29,1.92-4.79,3.62-7.55,4.87-2.76,1.24-5.77,2.02-8.82,2.08-3.05.09-6.11-.51-8.92-1.64-2.82-1.12-5.39-2.75-7.73-4.6-4.68-3.74-8.46-8.39-11.79-13.25-6.6-9.8-11.44-20.59-15.6-31.54-4.14-10.97-7.5-22.21-10.42-33.55-2.91-11.34-5.35-22.79-7.45-34.29-4.2-23.02-7.06-46.26-8.99-69.56-1.92-23.31-2.88-46.69-3-70.07-.06-11.69.26-23.38.68-35.06.44-11.68,1.08-23.36,1.94-35.01,1.73-23.32,4.31-46.58,8.15-69.65,1.93-11.54,4.17-23.02,6.87-34.4,2.71-11.38,5.86-22.67,9.76-33.71,1.96-5.52,4.11-10.98,6.55-16.31,2.44-5.33,5.18-10.54,8.39-15.47,3.22-4.9,6.92-9.59,11.53-13.34,2.3-1.86,4.85-3.48,7.63-4.57,2.77-1.11,5.78-1.67,8.77-1.56,2.99.09,5.95.83,8.67,2.03,2.73,1.2,5.23,2.84,7.53,4.7,4.6,3.74,8.4,8.31,11.78,13.11,6.72,9.67,11.77,20.32,16.16,31.17,4.35,10.87,7.95,22.03,11.07,33.3,3.12,11.28,5.76,22.68,8.04,34.15,9.05,45.92,12.72,92.76,12.85,139.51h.01Zm-3.46,0c.04-23.29-.84-46.59-2.78-69.8-1.91-23.21-4.8-46.35-9.1-69.23-2.15-11.44-4.66-22.82-7.64-34.07-2.99-11.24-6.44-22.38-10.65-33.22-4.23-10.81-9.14-21.43-15.66-31.03-3.27-4.76-6.96-9.29-11.4-12.97-2.21-1.83-4.62-3.44-7.22-4.62-2.6-1.17-5.4-1.94-8.24-2.01-2.85-.09-5.69.49-8.32,1.57-2.64,1.07-5.07,2.65-7.28,4.47-4.42,3.68-8.01,8.3-11.12,13.16-3.11,4.89-5.76,10.06-8.11,15.37-2.36,5.3-4.43,10.74-6.32,16.23-3.76,11-6.76,22.26-9.33,33.61-2.57,11.35-4.67,22.81-6.47,34.32-3.57,23.02-5.89,46.22-7.36,69.47-1.48,23.25-1.99,46.55-1.95,69.85-.06,23.29.71,46.59,2.44,69.81,1.74,23.22,4.42,46.38,8.41,69.32,2,11.46,4.34,22.87,7.15,34.16,2.81,11.29,6.07,22.47,10.08,33.36,4.03,10.87,8.75,21.56,15.12,31.2,3.21,4.77,6.86,9.31,11.28,12.9,2.21,1.78,4.62,3.32,7.22,4.38,2.59,1.06,5.37,1.64,8.16,1.55,2.79-.07,5.53-.8,8.08-1.97,2.55-1.18,4.91-2.8,7.07-4.64,4.33-3.72,7.9-8.3,11.05-13.12,6.26-9.71,10.91-20.43,14.9-31.32,3.96-10.92,7.18-22.11,9.96-33.4,2.77-11.29,5.09-22.71,7.07-34.18,3.97-22.94,6.61-46.11,8.36-69.33,1.78-23.22,2.6-46.52,2.59-69.81h-.01Z"/><path class="cls-5" d="m663.81,562.84c-.16,30.1-4.03,60.21-12.09,89.24-8.2,28.96-20.55,56.82-37.33,81.83-8.39,12.49-17.89,24.25-28.51,34.92-10.61,10.67-22.35,20.24-35.1,28.26-12.76,7.99-26.53,14.39-40.95,18.73-14.41,4.35-29.46,6.62-44.52,6.64-15.06,0-30.11-2.26-44.53-6.6-14.43-4.33-28.21-10.72-40.99-18.7-12.75-8.01-24.51-17.58-35.15-28.24-10.64-10.66-20.16-22.42-28.57-34.91-16.81-25.02-29.19-52.89-37.43-81.86-4.05-14.51-7.07-29.31-9.06-44.25-1.98-14.93-2.98-29.99-3.05-45.06.08-15.07,1.08-30.13,3.08-45.06,2-14.93,5.03-29.73,9.09-44.23,8.25-28.96,20.66-56.82,37.48-81.8,8.41-12.48,17.94-24.23,28.57-34.87,10.63-10.64,22.38-20.2,35.14-28.19,12.76-7.96,26.55-14.3,40.95-18.62,14.4-4.34,29.42-6.61,44.46-6.63,15.04.03,30.06,2.31,44.45,6.66,14.4,4.34,28.17,10.69,40.92,18.66,12.74,8,24.47,17.56,35.09,28.21,10.62,10.65,20.12,22.4,28.52,34.88,16.79,24.99,29.16,52.83,37.38,81.78,8.07,29.02,11.96,59.12,12.15,89.22h0Zm-3.96,0c-.04-29.76-3.75-59.55-11.6-88.27-7.9-28.68-19.78-56.37-36.14-81.27-8.18-12.44-17.46-24.16-27.87-34.82-10.41-10.64-21.9-20.27-34.47-28.27-12.59-7.96-26.18-14.36-40.43-18.69-14.25-4.33-29.12-6.61-44.02-6.66-14.9.06-29.77,2.35-44,6.7-14.25,4.34-27.83,10.76-40.4,18.73-12.56,8.01-24.04,17.64-34.42,28.29-10.38,10.66-19.65,22.39-27.81,34.83-16.33,24.9-28.19,52.57-36.05,81.24-3.91,14.35-6.74,28.98-8.67,43.72-1.92,14.74-2.88,29.61-2.91,44.48.04,14.87,1,29.74,2.93,44.48,1.93,14.74,4.77,29.36,8.7,43.71,7.88,28.66,19.75,56.31,36.1,81.19,8.16,12.43,17.43,24.14,27.82,34.79,10.39,10.63,21.86,20.26,34.41,28.24,12.57,7.95,26.14,14.32,40.37,18.65,14.21,4.35,29.05,6.66,43.94,6.73,14.88-.06,29.73-2.35,43.95-6.69,14.23-4.33,27.82-10.69,40.39-18.63,12.57-7.98,24.05-17.6,34.46-28.22,10.4-10.64,19.69-22.35,27.87-34.78,16.38-24.88,28.28-52.55,36.2-81.22,7.87-28.71,11.59-58.5,11.66-88.26Z"/><path class="cls-5" d="m233.68,460.1l59.61-.48,59.61-.27,119.22-.22,119.22.24,59.61.3,59.61.52c.1,0,.17.08.17.18s-.08.17-.17.17l-59.61.52-59.61.3-119.22.24-119.22-.22-59.61-.27-59.61-.48c-.14,0-.26-.12-.26-.26s.12-.26.26-.26Z"/><path class="cls-5" d="m302.84,360.24c14.11-.22,28.21-.32,42.32-.48l42.32-.27c14.11-.12,28.21-.11,42.32-.14l42.32-.08,84.64.24,42.32.3c14.11.18,28.21.28,42.32.52.1,0,.17.08.17.18s-.08.17-.17.17c-14.11.24-28.22.35-42.32.52l-42.32.3-84.64.24-42.32-.08c-14.11-.03-28.21-.02-42.32-.14l-42.32-.27c-14.11-.16-28.21-.26-42.32-.48-.14,0-.26-.12-.26-.26s.12-.25.26-.26Z"/><path class="cls-5" d="m212.97,559.97l64.79-.48,64.79-.27,129.58-.22,129.58.24,64.79.3,64.79.52c.1,0,.17.08.17.18s-.08.17-.17.17l-64.79.52-64.79.3-129.58.24-129.58-.22-64.79-.27-64.79-.48c-.14,0-.26-.12-.26-.26s.12-.26.26-.26Z"/><path class="cls-5" d="m233.68,659.82l59.61-.48,59.61-.27,119.22-.22,119.22.24,59.61.3,59.61.52c.1,0,.17.08.17.18s-.08.17-.17.17l-59.61.52-59.61.3-119.22.24-119.22-.22-59.61-.27-59.61-.48c-.14,0-.26-.12-.26-.26s.12-.26.26-.26Z"/><path class="cls-5" d="m649.95,760.85h-338.57c-.5,0-.92-.41-.92-.92s.41-.92.92-.92h338.57c.5,0,.92.41.92.92s-.41.92-.92.92Z"/></g><path class="cls-124" d="m636.31,826.07c.18-1.63.36-3.27.54-4.89,1.87-16.63,10.5-31.56,23.63-40.85l1.02-.72c15.82-11.19,33.98-18.07,52.9-20.04,0,0,38.47-3.08,43.62-3.45,29.75-82.09,208.76-87.55,256.95,51.64,0,0,4.43,11.8,6.77,17.84,3.78,9.75-3.31,20.26-13.84,20.52-6.2.15-12.39.33-18.55.49-1.54.42-3.12.65-4.72.65h-301.37l-32.01-2.22c-9.17-.64-15.98-9.28-14.93-18.97h0Z"/><path class="cls-80" d="m637.38,838.67h.96c1.86,0,3.38-1.61,3.38-3.58v-18.01c0-1.98-1.51-3.58-3.38-3.58s-3.27,1.48-3.37,3.38l-.96,18.01c-.11,2.06,1.43,3.79,3.37,3.79h0Z"/><path class="cls-4" d="m649.26,810.04h-10.05c3.74-12.04,11.16-22.55,21.28-29.7l1.02-.72c1.05-.74,2.11-1.46,3.18-2.17-2.05,7.6-4.59,18.02-6.25,25.02-1.06,4.45-4.84,7.57-9.17,7.57h0Z"/><path class="cls-30" d="m851.4,768.78h-31.07c-2.42,0-4.13,2.56-3.29,4.97,1.42,4.08,4.8,9.29,12.85,9.9,7.24.55,16.36-3.8,23.24-7.94,3.12-1.87,1.85-6.93-1.74-6.93h0Z"/><path class="cls-97" d="m903.17,850.06c-5.68-21.57,7.48-43.58,29.41-49.17,21.92-5.59,44.3,7.36,49.98,28.93s-7.48,43.58-29.41,49.17c-21.92,5.59-44.3-7.36-49.98-28.93Z"/><path class="cls-54" d="m919.32,863.07c-13.01-12.79-13.01-33.54,0-46.33s34.09-12.79,47.1,0c13.01,12.79,13.01,33.54,0,46.33s-34.09,12.79-47.1,0Z"/><path class="cls-127" d="m662.46,853.59c-7.71-20.95,3.3-44.08,24.6-51.66,21.29-7.58,44.81,3.25,52.52,24.2,7.71,20.95-3.3,44.08-24.6,51.66-21.29,7.58-44.81-3.25-52.51-24.2Z"/><path class="cls-54" d="m668.23,845.77c-3.28-17.8,8.73-34.85,26.83-38.08s35.43,8.59,38.71,26.39-8.73,34.85-26.83,38.08c-18.1,3.23-35.43-8.59-38.71-26.39Z"/><path class="cls-6" d="m673.84,852.01c.11,0,.22-.02.32-.07.42-.17.63-.66.44-1.08-1.49-3.47-2.25-7.16-2.25-10.97,0-15.54,12.85-28.18,28.65-28.18,4.9,0,9.74,1.24,13.98,3.58.4.22.91.08,1.14-.31.23-.4.08-.9-.32-1.12-4.5-2.48-9.62-3.79-14.8-3.79-16.72,0-30.32,13.38-30.32,29.83,0,4.02.8,7.93,2.38,11.61.14.31.44.5.77.5Z"/><path class="cls-6" d="m914.9,852.01c.11,0,.22-.02.32-.07.42-.17.63-.66.44-1.08-1.49-3.47-2.25-7.16-2.25-10.97,0-15.54,12.85-28.18,28.65-28.18,4.9,0,9.74,1.24,13.98,3.58.4.22.91.08,1.14-.31.22-.4.08-.9-.32-1.12-4.5-2.48-9.62-3.79-14.8-3.79-16.72,0-30.32,13.38-30.32,29.83,0,4.02.8,7.93,2.39,11.61.14.31.44.5.77.5Z"/><path class="cls-6" d="m893.25,827.72c.39,0,.75-.27.82-.67,3.62-18.73,14.47-30.66,32.24-35.44,13.34-3.59,25.79-1.6,25.92-1.58.45.07.89-.23.96-.67.08-.45-.23-.87-.68-.94-.52-.09-12.89-2.07-26.58,1.6-12.7,3.41-28.82,12.54-33.5,36.73-.08.45.21.88.66.96.05,0,.1.01.16.01h0Z"/><path class="cls-6" d="m751.09,833.87c.45,0,.82-.35.83-.8.47-14.94-3.6-26.65-12.11-34.8-14.05-13.45-35.58-12.38-35.8-12.37-.46.03-.81.42-.78.87.03.45.42.79.88.77.21-.02,21.04-1.03,34.55,11.91,8.15,7.82,12.06,19.11,11.6,33.57-.02.45.35.83.81.85h.03Z"/><path class="cls-104" d="m933.93,762.35h-63.9c-2.41,0-4.36-1.92-4.36-4.29v-33.92c0-6.96,6.1-12.38,13.14-11.73,34.55,3.2,56.67,14.33,65.67,33.83,3.47,7.54-2.13,16.1-10.55,16.1h0Z"/><path class="cls-52" d="m859.21,759.11v-41.59c0-1.78-1.57-3.18-3.37-3-38.1,3.79-63.48,17.29-70.14,45.06-.34,1.42.75,2.77,2.23,2.77h67.99c1.82,0,3.29-1.45,3.29-3.23h0Z"/><path class="cls-42" d="m758.02,756.12c8.25-21.76,22.94-36.17,41.46-43.99-8.47,19.18-16.15,36.32-25.63,47.48-5.58,1.16-10.85-.03-15.84-3.49Z"/><path class="cls-6" d="m858.01,840.64c2.65,0,4.84-2.09,4.91-4.7l3.45-122.32c.07-2.46-1.91-4.55-4.41-4.65-17.52-.74-33.14-.8-46.94,5.89-15.98,7.74-27.32,23.31-35.7,48.98l-.04.11v.12l-1.36,75.39,80,1.18h.07Zm3.29-4.75c-.05,1.75-1.52,3.15-3.29,3.15h-.05l-78.38-1.16,1.33-73.68c8.23-25.17,19.3-40.39,34.83-47.92,13.48-6.53,28.25-6.48,46.15-5.73,1.62.07,2.9,1.42,2.86,3.01l-3.45,122.32h0Z"/><path class="cls-133" d="m772.27,761.7l7.12-7.35c2.97-3.06,6.7-5.15,10.76-6.02l14.09-3.01c3.87-.83,7.57,2.05,7.99,6.21l.1.98c.43,4.24-2.72,7.92-6.74,7.88l-18.15-.22c-2.53-.03-4.83,1.56-5.83,4.02l-.33.83c-.44,1.09-1.46,1.81-2.58,1.81h-4.46c-2.53,0-3.77-3.26-1.96-5.12h0Z"/><path class="cls-3" d="m994.39,803.52c1.64,5.38,5.33,9.05,8.24,8.19,2.91-.86,3.94-5.92,2.3-11.3-1.63-5.39-5.32-9.05-8.23-8.19-2.91.86-3.94,5.92-2.3,11.3Z"/><path class="cls-134" d="m1008.46,816.83h8.01c4.86,0,8.8,3.87,8.8,8.65v4.55c0,4.78-3.94,8.65-8.8,8.65h-8.01c-4.86,0-8.8-3.87-8.8-8.65v-4.55c0-4.78,3.94-8.65,8.8-8.65Z"/><path class="cls-26" d="m935.79,670.28h-143.29c-7.61,0-13.8,6.08-13.8,13.57v11.08c0,7.49,6.18,13.57,13.8,13.57h143.29c7.61,0,13.8-6.08,13.8-13.57v-11.08c0-7.49-6.18-13.57-13.8-13.57Z"/><path class="cls-53" d="m948.55,691.05c.44,0,.81-.35.81-.8s-.36-.8-.81-.8l-168.84-.86c-.44,0-.81.35-.81.8s.36.8.81.8l168.84.86Z"/><path class="cls-53" d="m851.36,689.76v3.78c0,1.18,1.04,2.42,2.24,2.42h20.14c1.2,0,2.24-1.24,2.24-2.42v-3.78h3.11s.19-.09.19-.06v6.79c0,1.18-1.23,2.12-2.43,2.12h-26.37c-1.2,0-2.12-.94-2.12-2.12v-6.79s.04.06.04.06h2.96Z"/><path class="cls-17" d="m805.38,641.5h105.99c7.19,0,13.02,5.74,13.02,12.81v3.91c0,7.08-5.83,12.81-13.02,12.81h-105.99c-7.19,0-13.02-5.74-13.02-12.81v-3.91c0-7.07,5.83-12.81,13.02-12.81Z"/><path class="cls-53" d="m923.59,657.73c.44,0,.81-.35.81-.79s-.36-.8-.81-.8l-130.46-.67c-.44,0-.81.35-.81.8s.36.8.81.8l130.46.67Z"/><path class="cls-53" d="m848.35,656.68v2.79c0,.91.94,1.64,1.87,1.64h15.56c.93,0,1.78-.73,1.78-1.64v-2.79h2.35s.35-.21.35-.18v5.24c0,.91-1.15,1.43-2.08,1.43h-20.37c-.93,0-1.56-.51-1.56-1.43v-5.24s-.05.18-.05.18h2.15,0Z"/><path class="cls-61" d="m484.67,862.96s-1.8,3.29-3.52,12.02c-.31,1.57.8,3.08,2.4,3.22,2.83.26,7.18.59,10.67.54,1.61-.02,2.85-1.43,2.65-3.02-.41-3.18-1.64-8.39-5.39-12.43l-6.81-.33h0Z"/><path class="cls-10" d="m483,852.97l2.23,11.74s2.14,1.57,6.35.4l-1.11-12.64-7.47.51h0Z"/><path class="cls-21" d="m518.98,876.4c-4.51-.12-6.84-.66-8.05-1.15,0,.45,0,.91.01,1.38.02.51.39.91.85.91l24.77-.16c.79,0,1.25-.92.91-1.65-3.25.27-11.52.87-18.49.67h0Z"/><path class="cls-122" d="m537.47,875.72c-.03-.06-.06-.13-.1-.18-2.18-3.06-7.76-9.14-18.77-11.78l-5.28-.17s-2.35,4.09-2.4,11.66c1.21.49,3.54,1.02,8.05,1.15,6.97.2,15.24-.4,18.49-.67h0Z"/><path class="cls-29" d="m512.35,855.58c.06.39.78,6.38,1.07,8.7.07.55.46.98.97,1.04.9.11,2.36.2,3.63-.06.69-.14,1.18-.8,1.18-1.57v-9.39l-6.84,1.28h0Z"/><path class="cls-75" d="m508.11,746.38s12.74,48.42,12.51,109.34c0,1.11-.78,2.07-1.87,2.3-1.6.34-3.96.74-5.9.68-1.04-.03-1.91-.8-2.08-1.83-1.79-10.48-9.97-73.71-15.8-83.29,0,0-3.52,56.78-2.3,84.05.03.68-.46,1.27-1.14,1.34-1.02.12-5.05.21-7.13-.01-.79-.08-1.43-.68-1.54-1.47-1.27-8.86-8.6-61.64-8.28-99.65.02-2.15,5.67-11.47,5.67-11.47h27.88Z"/><path class="cls-65" d="m462.8,678.38c0-2.88,31.28-15.05,58-3.07-.11,20.97-10.89,51.48-12.2,73.03-2.92,3.14-22.36,3.42-29.16,1.16-.49-.17-.89-.5-.82-1.02,1.48-10.99-12.71-42.3-15.82-70.1h0Z"/><path class="cls-105" d="m485.38,660.68l-.28,9.38c-.03.93.55,1.76,1.42,2.07,2.4.84,7.36,2.13,12.07.45.95-.34,1.52-1.31,1.37-2.31l-1.41-9.59h-13.17Z"/><path class="cls-121" d="m481.43,643.56s1.65,16.8,5.27,21.08c0,0,10.87.99,14.82-1.32,0,0,2.8-8.4,2.47-19.6,0,0,.54-10.19-10.7-11.03-13.17-.99-11.85,10.87-11.85,10.87h0Z"/><path class="cls-100" d="m502.83,648.83s.99-2.96,2.64-2.96-.33,7.91-2.64,7.91v-4.94Z"/><path class="cls-77" d="m482.93,649.61s-1.38-2.81-3.01-2.58c-1.63.22,1.39,7.79,3.68,7.48l-.66-4.9h0Z"/><path class="cls-135" d="m482.56,652.42s.37,10.03,4.78,15.12c.4.47.99.74,1.61.77,2.25.11,8.01.3,11.26-.34.81-.16,1.47-.73,1.74-1.51.8-2.34,2.18-6.03,1.71-14.5l-2.65,6.31c-1.96,5.21-3.03-1.11-3.94-1.04h-5.93c-.62.05-1.32,3.95-3.63,2.81l-4.95-7.62h0Z"/><path class="cls-113" d="m499.54,639.61s-8.39,8.63-17.53,8.6c0,0-5.19-13.87,5.02-16.17,10.21-2.31,10.54.66,10.54.66,0,0,11.94-2.93,6.63,14.01l-4.65-7.1Z"/><path class="cls-25" d="m441.34,774.68h-3.74v21.52h3.74v-21.52Z"/><path class="cls-118" d="m460.05,774.68h-3.74v21.52h3.74v-21.52Z"/><path class="cls-119" d="m461.74,776.55c-8.86,1.39-17.72,1.39-26.58,0-1.46-1.27-1.37-2.58,0-3.94,9.3.83,18.13.79,26.58,0,1.37,1.36,1.46,2.67,0,3.94Z"/><path class="cls-62" d="m438.68,897.22c1.24,0,2.25-2.36,2.25-5.27s-1.01-5.27-2.25-5.27-2.25,2.36-2.25,5.27,1.01,5.27,2.25,5.27Z"/><path class="cls-39" d="m463.39,892.41c0,2.91-1.01,5.27-2.25,5.27s-2.25-2.36-2.25-5.27,1.01-5.27,2.25-5.27,2.25,2.36,2.25,5.27Z"/><path class="cls-65" d="m470.51,889.58c-11.31,4.07-25.28,3.59-41.32-.38-2.35-.58-4.08-2.59-4.32-5l-7.79-77.07c-.49-4.85,2.91-9.24,7.74-9.99,16.11-2.48,32.66-2.53,49.69.06,4.76.73,8.12,5.07,7.63,9.87l-7.85,77.68c-.22,2.2-1.68,4.08-3.76,4.83h0Z"/><path class="cls-53" d="m467.41,883.09c-9.63,3.47-21.53,3.06-35.19-.32-2-.49-3.47-2.21-3.68-4.26l-6.64-65.63c-.42-4.13,2.48-7.87,6.58-8.5,13.72-2.11,27.81-2.16,42.31.05,4.06.61,6.91,4.32,6.5,8.4l-6.69,66.15c-.19,1.87-1.43,3.47-3.2,4.11h0Z"/><path class="cls-120" d="m472.14,882.09h-.04c-.21-.02-.37-.21-.35-.43,1.13-12.07,2.65-24.15,3.99-34.8,1.81-14.41,3.38-26.86,3.74-36.52.2-5.34-3.81-10.02-9.13-10.64-9.26-1.1-18.13-.87-25.96-.67-1.93.05-3.76.09-5.56.12-.22.02-.39-.17-.4-.39,0-.21.17-.39.39-.4,1.8-.03,3.63-.08,5.56-.12,7.86-.2,16.76-.43,26.07.67,5.72.68,10.03,5.71,9.82,11.45-.36,9.7-1.93,22.16-3.74,36.59-1.34,10.65-2.86,22.72-3.99,34.78-.02.2-.19.35-.39.35h0Z"/><path class="cls-120" d="m448.38,775.07c-4.43,0-8.87-.39-13.27-1.17-.21-.04-.36-.24-.32-.45.04-.21.24-.35.45-.32,8.71,1.54,17.55,1.54,26.27,0,.22-.04.42.11.45.32.04.21-.11.41-.32.45-4.4.78-8.84,1.17-13.27,1.17Z"/><path class="cls-115" d="m482.65,731.49l23.35,1.01,2.98-16.55-2.16-2.41-24.17,17.95Z"/><path class="cls-90" d="m478.9,713.53h27.91l-3.45,17.95h-20.72l-3.74-17.95Z"/><path class="cls-37" d="m497.91,725.5c.5-2.13-.82-4.26-2.94-4.76-2.13-.5-4.26.82-4.76,2.94-.5,2.13.82,4.26,2.94,4.76,2.13.5,4.26-.82,4.76-2.94Z"/><path class="cls-65" d="m494.08,728.96c-2.4,0-4.35-1.95-4.35-4.35s1.95-4.35,4.35-4.35,4.35,1.95,4.35,4.35-1.95,4.35-4.35,4.35Zm0-7.91c-1.97,0-3.56,1.6-3.56,3.56s1.6,3.56,3.56,3.56,3.56-1.6,3.56-3.56-1.6-3.56-3.56-3.56Z"/><path class="cls-27" d="m485.38,716.35h-3.45v2h3.45v-2Z"/><path class="cls-65" d="m485.58,718.55h-3.84v-2.39h3.84v2.39Zm-3.45-.39h3.06v-1.61h-3.06v1.61Z"/><path class="cls-59" d="m500.63,715.94h-11.65v1.02h11.65v-1.02Z"/><path class="cls-65" d="m500.82,717.16h-12.04v-1.41h12.04v1.41Zm-11.65-.39h11.26v-.63h-11.26v.63Z"/><path class="cls-116" d="m478.9,713.53l6.19-43.47-4.41,43.8-1.78-.33Z"/><path class="cls-50" d="m499.85,669.55l9.12,46.39-2.16-2.41-6.96-43.98Z"/><path class="cls-65" d="m500.52,731.49s18.77,10.54,23.38-2.96c4.61-13.51-7.66-24.89-7.66-24.89l3.58-28.71c4.54.02,30.97,40.11,15.61,61.17-13.72,18.82-34.25,1.65-34.25,1.65l-.66-6.26h0Z"/><path class="cls-23" d="m502.5,731.49s-8.56-5.27-13.83-1.97c0,0-.99,3.95,1.98,5.6,0,0,5.27,3.62,9.55,1.65,4.28-1.97,2.31-5.27,2.31-5.27Z"/><path class="cls-65" d="m448.17,747.45c-.15-14.64,2.67-33.41,3.79-41.44,2.99-21.35,11.46-28.5,11.46-28.5,20.93,2.07.25,47.89.25,47.89l-6.05,23.2c-2.15-.85-5.34-1.6-9.46-1.15h0Z"/><path class="cls-72" d="m448.17,747.45c4.13-.45,7.31.3,9.46,1.16l-4.47,18.8s1.4,10.07.63,11.23c-.77,1.16-7.41,1.08-7.5-.76s2.23-11.17,2.23-11.17c0,0-.24-8.46-.35-19.26h0Z"/><path class="cls-107" d="m559.22,647.29s-5.27-14.32,12.16-12.68c0,0,8.03-2.44,9.48,5.25,0,0,5.76,2.78,2.79,10,0,0,14.91-8.18,23.61,4.68,8.7,12.86,3.42,21.29-2.92,24.15,0,0,5.71,1.97,3.99,8.37-1.72,6.4-13.96,12.4-22.52,6.04,0,0-21.17,5.74-22.78-9.54,0,0-10.89-5.13-2.05-19.12,8.84-13.99-1.76-17.15-1.76-17.15Z"/><path class="cls-16" d="m585.22,685.23c5.67,5.42,7.79,23.44,7.74,31.17l7.36-21.57,3.76,1.69-10.34,36.8c-6.01-8.65-10.41-18.98-12.85-31.34-.46-6.05.55-12.02,4.33-16.74h0Z"/><path class="cls-129" d="m559.67,678.64l-34.5,39.02,4.5-.06,33.74-22.96c.03-5.86-.89-11.33-3.74-16h0Z"/><path class="cls-86" d="m574.15,864.47c-2.84,2.59-5.14.05-5.91-.28.03.51-6.2,1.78-10.53,2.28-4.33.5-5.19,4.74-3.22,5.6,1.97.86,8.58,1.12,12.02.34,2.94-.66,5.39.44,8.13.66.88.07,1.66-.53,1.85-1.38.85-4.07-2.32-7.23-2.32-7.23h0Z"/><path class="cls-65" d="m560.91,677.85c3.43-1.03,14.27-3.08,23.77,5.68,1.61,1.49,1.68,3.37.83,6.02-2.98,9.26-9.28,37.13-3.38,49.13,0,0-10.4,11.46-21.74,2.22,0,0-5.09-22.18-11.76-31.92-4.6-6.72,7.34-25.24,10.36-29.72.46-.68,1.13-1.18,1.91-1.41h0Z"/><path class="cls-132" d="m574.54,658.29s.9,15.25,1.28,21.57c0,0-5.6,2.55-10.88-1.75,0,0,.92-14.42.12-16.98l9.47-2.84Z"/><path class="cls-131" d="m560.2,643.44s-10.67,20.16-2.1,24.45c8.57,4.29,16.17-10.04,16.17-10.04,0,0,1.7-10.48-1.95-13.46-3.65-2.99-12.12-.94-12.12-.94Z"/><path class="cls-38" d="m565.7,638.22s-5.84,2.24-6.32,5.09c-.48,2.85,9.27,4.11,11.92,3.89l3.6,10.74s4.89-11.21,1.6-16.87c-3.29-5.66-10.8-2.84-10.8-2.84h0Z"/><path class="cls-58" d="m571.55,656.83s4.32-6.61,6.87-3.02c2.55,3.59-3.7,7.38-6.25,5.79l-.62-2.77h0Z"/><path class="cls-43" d="m582.08,856.67c-3.01-7.32-10.77-27.82-12.7-36.9-2.19-10.32-13.65-18.7-13.65-18.7l17.46-26.9-5.63-2.07-16.29,1.48s-5.86,22.88-6.82,27.14c-.39,1.71-.12,3.51.76,5.03l33.54,55.95c.12.21,3.8-3.89,3.33-5.04h0Z"/><path class="cls-8" d="m568.16,784.74s17.64-.71,17.88-.75c.63-2.85,4.23-9.34,4.48-10.44,3.37-15.14,7.14-31.47-9.42-41.34-7.63,3.27-14.74,5.2-22.28,3.28,0,0,1.49,4.76-.8,12.6l-8.47,30.76c2.84-.35,17.73,4.44,18.62,5.89h0Z"/><path class="cls-24" d="m580.3,800.54l10.37-32.29-23.1,3.85-.52,24.3s1.17,50.16,1.33,57.29c.06,2.58.4,6.48-.13,10.39-.06.5.22.69.54.89,1.59.98,3.14,1.65,5.46-.39l-.5-1.89c-.15-1.26.49-2.76.77-4.14,1.54-7.47,6.69-32.32,8.09-37.67,1.51-5.75,1.73-13.26-2.6-19.89l.29-.45h0Z"/><path class="cls-31" d="m567.05,784.74c-.42,1.4,18.8,1.69,19.43.35.64-2.85,3.8-10.44,4.04-11.54,3.37-15.14,7.14-31.47-9.42-41.34-7.63,3.27-14.74,5.2-22.28,3.28.14.73.33,1.9.46,3.36.19,2.12.14,3.68.14,3.93-.02,1.85,1.9,5.67,10.22,14.22-.18,4.2-2.17,9.02-2.59,13.55-.35,3.76.46,10.68,0,14.18Z"/><path class="cls-84" d="m582.05,856.53c-.17,3.67-3.44,3.51-4.18,3.81.37.32-2.99,5.39-5.57,8.65-2.59,3.26-.31,6.71,1.6,5.96,1.91-.76,6.55-5.04,8.35-7.89,1.54-2.44,3.94-3.34,5.94-5.05.64-.54.77-1.48.31-2.18-2.17-3.32-6.45-3.31-6.45-3.31h0Z"/><path class="cls-88" d="m613.18,776.1l-24.68-12.47-26.33,9.91-29.4-8.69-25,10.27-1.97-70.59,24.91-15.36,29.75,15.24,28.04-19.36,27.22,18.91-2.54,72.13Z"/><path class="cls-65" d="m530.39,690.84l29.43,15.26,28.3-18.9,26.52,16.72-2.63,70.6-23.52-13.19-26.11,10.78-29.63-9.1-23.8,10.54-1.2-69.08,22.63-13.62Z"/><path class="cls-53" d="m559.83,706.1l2.56,66,26.11-10.78-.37-74.13-28.3,18.9Z"/><path class="cls-22" d="m568.5,741.26c-.14,1.03-.24,2.06-.33,3.1-.02.25.03.58.28.61.15.02.27-.11.37-.22.43-.47.88-1.08.67-1.68-.08-.22-.24-.41-.3-.64-.09-.34.05-.71.02-1.06-.04-.35-.48-.7-.72-.44l.02.33h0Z"/><path class="cls-130" d="m541.2,725.17c.04-.31,0-.63-.14-.91-.24-.48-.75-.79-1.28-.93-.52-.14-1.08-.13-1.61-.12l-1.51.03c-.15,0-.3,0-.44.07-.19.08-.33.27-.43.45-.34.59-.5,1.27-.47,1.95-.66.23-1.31-.39-1.67-.99-.42-.69-.72-1.46-.88-2.25-.07-.31-.1-.65.05-.91.09-.15.23-.26.37-.36.56-.41,1.22-.71,1.9-.79,1.18-.12,2.33.44,3.29,1.13.93.66,2.44,1.45,3.48.5.54-.49.55-1.39.17-2.01-.61-1.02-2.16-1.54-3.17-2.06-.47-.24-.78-.73-.91-1.25-.14-.51-.12-1.05-.11-1.58,1.4-.55,3.05-.45,4.36.29.18.11.39.25.41.46.02.22-.15.4-.29.57-1.97,2.48,2.12,4.2,3.88,4.79.72.24,1.4.65,2.16.49.71-.14,1.35-.91,2.08-1.11.53-.14,1.1-.07,1.64-.18.54-.11,1.11-.51,1.08-1.06-.02-.45-.41-.79-.8-1.01,0,.04-.68-.49-.74-.61-.59-1.15.27-2.16.6-3.16.48-1.44-.23-2.28,1.24-3.08.31-.17.56-.59.34-.87-.2-.25-.58-.19-.9-.19-1.02,0-1.83-.86-2.82-1.14-.52-.15-1.06-.13-1.6-.14-2.54-.04-5.07-.67-7.34-1.82-1.67-.85-2.72-.97-4.52-.78-1.7.18-2.84,1-4.01,2.18-.27.27-.52.56-.86.71-1.44.64-3.27.51-4.74,1.15-1.75.76-2.24,3.1-3.84,4.14-.92.6-2.09.67-3.11,1.11-1.5.64-2.2,1.96-3.05,3.25-.52.79-2.46,2.15-2.35,3.07.02.17.1.33.18.47.53.83,1.33.92,2.17,1.16,1.11.31,1.78.79,2.76,1.46,1.02.7,2.42,1.31,2.5,2.55.04.57-.24,1.12-.37,1.68-.61,2.52,1.66,4.79,3.87,6.15,2.21,1.36,4.81,2.71,5.52,5.21.06.23.12.47.29.64.65.61,1.13-.77,1.32-1.22.12-.28.01-.62-.18-.87-.2-.24-.46-.41-.71-.6-.82-.66-1.34-1.66-1.43-2.7-.01-.13-.01-.28.06-.39.38-.56,1.34-.79,1.8-1.47.67-.97.82-1.89.94-3.04.42-4.23,4.41-2.73,6.9-4.61.47-.35.82-.9.9-1.47h0Z"/><path class="cls-18" d="m533.95,747.07c.26.52.47,1.02.52,1.43.24,1.82-1.33,4.07-1.99,5.73-.18.47-.37.96-.29,1.45.03.21.12.4.2.6.61,1.43,1.8,2.72,2.85,3.82.36-.94.34-3.21.23-4.22-.03-.33-.09-.68.03-.99.39-.99,1.67-2.36,2.54-2.96.86-.58,1.99-1.05,2.22-2.06.09-.39.01-.81.14-1.19.08-.23.22-.43.33-.64.56-1.03.87-3.03-.24-3.77-1.25-.82-3.01.38-4.08-.96-.16-.2-.28-.44-.47-.62-.34-.34-.86-.45-1.34-.37-3.16.53-1.6,2.83-.66,4.74h0Z"/><path class="cls-55" d="m553.76,732.01c1,.64,2.72-.76,3.35-2.39.08-.2.15-.42.3-.58.29-.34.8-.38,1.24-.32.44.06.88.2,1.33.15.64-.08,1.16-.57,1.46-1.14.3-.57.4-1.21.51-1.85.47-.12.98-.07,1.42.12.34.15.68.49.58.85-.05.17-.17.29-.29.42-.37.39-.72.8-1.04,1.23-.2.27-.39.61-.24.91.4.81,1.14.39.93,1.54-.27,1.45-2.23,2.04-1.11,3.76.41.63,1.16,1.01,1.91,1.05.54.02,1.2-.26,1.21-.8,0-.16-.06-.32,0-.48.07-.2.29-.29.49-.33.68-.1,1.33.24,1.95.52.19.08.41.16.59.06.58-.33.31-.61,1.1-.68.67-.06,1.46.46,1.84.97.09.12.17.28.12.43-.05.12-.19.19-.26.3-.12.19,0,.45.18.57.18.12.41.15.63.19,1.02.21,1.04,1.17,1.76,1.66.58.39,2.07.47,1.93-.66-.05-.41-.46-.75-.39-1.16.06-.36.46-.55.83-.6.36-.05.75-.01,1.07-.18.21-.11.38-.3.57-.45,1.21-.88,4.08-.13,5.01.86.87.92.97,2.51,2.08,3.11-.13-1.23-.75-2.39-1.69-3.19-.17-.15-.36-.29-.45-.5-.07-.17-.07-.37-.06-.56.05-.97.24-1.88.51-2.78-.03.11.71-1.86.18-1.49.95-.67,3.03-1.76,4.23-1.69.62.04,1.23.4,1.5.96.27.57.1,1.32-.41,1.67-.49.34-1.17.27-1.68.6-.48.31-.69.99-.46,1.52.31-.43.79-.74,1.31-.86.7-.16,1.49,0,2.09-.38.45-.29.68-.83.68-1.36,0-.53-.19-1.04-.45-1.5-.19-.33-.42-.65-.52-1.02-.16-.59.03-1.23.37-1.74,1.27-1.89,3.62-2.71,5.8-2.01.14.05.3.11.37.24.11.19,0,.44.05.65.07.34.59.47.82.2.15-.18.14-.45.2-.68.15-.61.77-.98,1.37-1.15.74-.21,2.71-1.19,2.91.1.02.11.02.23.06.34.14.29.6.25.82.02.45-.49.53-1.28.97-1.82.39-.48.96-.77,1.28-1.3.8-1.33.19-3.06-1.21-3.71-1.34-.62-2.9-.34-4.35-.08-1,.18-4.43.87-4.68-.75-.02-.13-.02-.28-.08-.39-.08-.15-.24-.22-.35-.35-.13-.17-.14-.4-.2-.6-.25-.73-1.21-.86-1.98-.87.08-.45.12-1-.24-1.28-.2-.16-.48-.17-.74-.18-.67-.03-2.29.21-2.85-.18-.74-.52-.23-1.41-.55-2.12-.34-.76-1.61-.87-1.75-1.69-.03-.18,0-.36-.02-.54-.05-.44-.41-.77-.74-1.06-.6-.52-1.29-1.08-2.09-1.05-.15.12-.02.37.15.46.17.09.39.14.47.31.17.33-.31.6-.67.66-.02.48.46.8.84,1.1.63.51,1.08,1.24,1.25,2.04-1.27.23-2.57.28-3.85.16-1.55-.15-2.54,2.31-4.37,1.63-.27-.1-.51-.28-.8-.34-.71-.14-1.29.54-1.93.88-.98.52-2.17.25-3.22-.11-1.25-.43-2.77-1.04-4.03-.3-.47.28-.84.7-1.35.92-1.05.46-2.23-.11-3.38-.22-2.81-.27-4.5,2.48-5.42,4.78-.14.35-.26.71-.24,1.09.02.37.21.76.55.91.51.23,1.09-.14,1.42-.58.33-.45.53-.99.94-1.37s1.15-.5,1.47-.05c.16.22.16.52.16.79v1.56c0,.29,0,.58-.12.84-.19.43-.65.67-1.08.88-.93.45-1.86.9-2.79,1.35-.31.15-.63.31-.9.53-1.22,1.03-.4,2.45-1.34,3.44-.38.4-1.01.52-1.32.97-.23.34-.23.77-.22,1.18.03,1.13.32,1.76.74,2.03h0Z"/><path class="cls-33" d="m586.21,740.64c-.38.68-.32,1.57-1.18,1.95-.57.25-1.29.14-1.75.55-.52.47-.39,1.31-.29,2.01.02.12.03.26-.02.37-.14.31-.62.3-.79.59-.14.25.03.57.25.76.65.59,1.71.66,2.44.18.19-.13.4-.3.63-.25.26.06.35.39.43.65.15.56.45,1.1.93,1.43,1.5,1.04,3.61-.23,5.28,1.24.2.18.4.39.46.66.06.29-.03.62.13.86.2.31.7.27.97.02.27-.25.38-.62.49-.97s.26-.72.57-.92c.52-.33,1.12-.2,1.42-.88.36-.86-.72-1.57-.38-2.35.15-.35.4-.73.25-1.08-.08-.18-.25-.29-.38-.43-.64-.64-.75-1.25-1.61-1.64-.55-.25-1.68.07-1.9-.84-.06-.24.03-.54-.16-.7-.1-.09-.26-.1-.39-.1-.96,0-2.09.02-2.64-.77-.6-.87-.68-1.5-1.9-1.06-.45.16-.7.41-.86.72h0Z"/><path class="cls-66" d="m557.66,735.85c-.2.27-.31.61-.52.88-.59.76-.85.09-1.52.34-.23.09-.43.24-.68.3-.49.11-.97-.21-1.47-.21-1.92,0-.91,3.09.02,3.68.17.11.39.11.6.11.64,0,1.27-.01,1.91-.02.18,0,.37,0,.52.1.46.32.02,1.1.3,1.58.19.33.63.39,1.01.46.8.14.97,1.01,1.46,1.54.63.69,1.22.96,1.58,1.96.21.59.28,1.23.56,1.8.57,1.16,2.04,1.79,3.27,1.39,1.23-.4,2.06-1.77,1.84-3.04-.13-.74-.55-1.4-.85-2.09-.6-1.4-.2-3.11,1.47-3.38.42-.07.96-.09,1.11-.49.23-.57-.64-1.24-.28-1.73.13-.18.38-.24.5-.43.15-.25-.02-.58-.23-.79-.21-.21-.48-.39-.57-.67-.5-1.6-2.14-.6-3.23-.39-.97.19-1.53.06-2.34-.4-1.25-.73-3.16-2.27-4.43-.51h-.02Z"/><path class="cls-70" d="m561.81,710.86c.14-.27.49-.33.8-.35,1.05-.07,2.11,0,3.14.2-.85.67-1.8,1.37-2.89,1.34-.49-.01-1.01-.18-1.46-.01-.11-.33-.05-.7.15-.97l.26-.2h0Z"/><path class="cls-46" d="m549.69,723.2c1.07.85,4.84-.28,3.08-1.37-.28-.18-.63-.23-.95-.28-.45-.07-.9-.14-1.34-.04s-.87.38-1,.81c-.13.41-.02.71.22.9h0Z"/><path class="cls-81" d="m596.3,715.75c.66.58,1.59.72,2.46.84.43.06,1,.04,1.16-.37.16-.43-.35-.84-.82-.89-.46-.05-.95.07-1.38-.11-.38-.16-.68-.55-1.09-.54-.48,0-.77.7-.43,1.04l.09.03h0Z"/><path class="cls-5" d="m530.59,690.83h-.39s2.37,72.18,2.37,72.18h.39s-2.37-72.18-2.37-72.18Z"/><path class="cls-5" d="m588.34,687.16h-.39s.38,74.13.38,74.13h.39s-.38-74.13-.38-74.13Z"/><path class="cls-92" d="m603.22,690.89s4.16,3.02,1.53,8.18c-2.63,5.16-4.59,5.05-4.6,2.8,0-2.25,0-2.28-1.19-4.79-1.2-2.51-1.8-6.71-1.8-6.71,0,0,1.68-1.7,6.07.52h0Z"/><path class="cls-98" d="m502.89,721.22s-2.95,5.44,1.81,7.97c4.76,2.53,5.1-.69,3.91-2.41-1.2-1.72-1.34-2.06-1.76-4.61-.43-2.55-.8-3.91-.8-3.91,0,0-.35-1.07-3.16,2.97h0Z"/><path class="cls-47" d="m691.35,440.17l-21.28-13.19c-.44-.27-.96-.37-1.47-.26l-27.69,5.68c-.74.15-1.34.71-1.54,1.45-.2.73.03,1.52.6,2.03l16.59,14.91,34.79-10.62h0Z"/><path class="cls-68" d="m506.97,464.73s258.03-46.25,268.1-43.03c10.07,3.22,28.07,13.9,33.38,13.92,5.31.02,23.86,3.27,19.04,16.52-4.82,13.25-218.8,53.83-243.7,45.24-24.9-8.58-87.98-24.74-87.98-24.74,0,0-5.8-9.04,11.17-7.92h0Z"/><path class="cls-19" d="m581.66,452.29l-37.12-20.65c-2.33-1.29-4.25-3.22-5.54-5.55l-15-27.13c-1.19-2.15-3.65-3.27-6.05-2.77-7.69,1.62-23.66,5.21-23.74,7.02-.1,2.39,7.68,62.33,7.68,62.33l79.76-13.25h0Z"/><path class="cls-93" d="m509.38,473.31l-3.1,12.64c-.52,2.13-.04,4.3,1.32,6.03,1.35,1.73,3.42,2.66,5.62,2.67l13.11.05c2.07.01,4.04-.8,5.41-2.35l23.42-26.64-45.79,7.61h0Z"/><path class="cls-123" d="m644.52,515.61s7.92,9.78,20.85,9.83c12.93.05,28.86-3.47,31.87-8.04,3-4.57,9.49-38.35-16.78-33.58-26.28,4.77-56.98,19.97-35.93,31.79h0Z"/><path class="cls-76" d="m629.92,480.64l61.32-10.62-51.65,66.01c-.72.93-1.8,1.5-2.97,1.6l-36.73,2.97c-1.59.13-3.12-.65-3.94-2.02-.82-1.37-.81-3.08.05-4.43l33.91-53.51h0Z"/><path class="cls-85" d="m693.86,518.32c.16.03.31.04.46.02.82-.1,1.65-.95,2.45-2.52,2.59-5.04,4.25-15.83-.16-24.06-1.31-2.43-3.73-4-6.48-4.2-2.26-.16-5.15.51-6.08,4.59-1.45,6.41,4.67,21.18,8.14,25,.61.67,1.16,1.06,1.67,1.16h0Zm-2.89-29.51c1.96.42,3.69,1.7,4.65,3.48,4.17,7.78,2.56,18.33.15,23.01-.7,1.36-1.3,1.89-1.6,1.92-.04,0-.39.02-1.16-.83-3.61-3.97-9.15-18.34-7.88-24,.61-2.7,2.22-3.91,4.91-3.72.31.02.62.07.93.13Z"/><path class="cls-101" d="m495.67,417.43l6.36.02,5.82,40.67-6.7,1.54-5.48-42.23Z"/><path class="cls-106" d="m600.11,469.18v-2.48c.02-2.1,1.72-3.79,3.82-3.78h.24c2.09,0,3.79,1.72,3.78,3.81v2.48c-.02,2.1-1.72,3.79-3.81,3.78h-.24c-2.09,0-3.78-1.71-3.78-3.81Z"/><path class="cls-1" d="m614.63,468.1v-2.48c.02-2.1,1.72-3.79,3.82-3.78h.24c2.09,0,3.78,1.71,3.78,3.81v2.48c-.02,2.1-1.72,3.79-3.82,3.78h-.24c-2.1,0-3.79-1.71-3.78-3.81Z"/><path class="cls-73" d="m629.21,462.35c.01-2.1,1.71-3.79,3.81-3.78h.24c2.09.01,3.79,1.71,3.78,3.81v2.48c-.02,2.1-1.72,3.79-3.82,3.78h-.24c-2.1,0-3.79-1.71-3.78-3.81v-2.48Z"/><path class="cls-125" d="m642.6,462.62v-2.48c.02-2.1,1.72-3.79,3.82-3.78h.24c2.09,0,3.78,1.71,3.78,3.81v2.48c-.02,2.1-1.72,3.79-3.82,3.78h-.24c-2.09,0-3.78-1.71-3.78-3.81Z"/><path class="cls-28" d="m658.3,457.99c.01-2.1,1.71-3.79,3.81-3.78h.24c2.09,0,3.79,1.71,3.78,3.81v2.48c-.02,2.1-1.72,3.79-3.82,3.78h-.24c-2.1,0-3.79-1.71-3.78-3.81v-2.48Z"/><path class="cls-95" d="m672.82,458.28v-2.48c.02-2.1,1.72-3.79,3.81-3.78h.24c2.1,0,3.79,1.71,3.78,3.81v2.48c-.02,2.1-1.72,3.79-3.82,3.78h-.24c-2.1,0-3.79-1.71-3.78-3.81Z"/><path class="cls-14" d="m687.36,454.98v-2.48c.02-2.1,1.72-3.79,3.81-3.78h.24c2.1,0,3.79,1.71,3.78,3.81v2.48c-.02,2.1-1.72,3.79-3.82,3.78h-.24c-2.1,0-3.79-1.71-3.78-3.81Z"/><path class="cls-20" d="m700.81,451.44c.01-2.1,1.71-3.79,3.81-3.78h.24c2.1.01,3.79,1.71,3.78,3.81v2.48c-.02,2.1-1.72,3.79-3.82,3.78h-.24c-2.09,0-3.79-1.71-3.78-3.81v-2.48Z"/><path class="cls-60" d="m715.34,449.26c.01-2.1,1.71-3.79,3.81-3.78h.24c2.09.01,3.79,1.71,3.78,3.81v2.48c-.02,2.1-1.72,3.79-3.82,3.78h-.24c-2.09-.01-3.79-1.71-3.78-3.81v-2.48Z"/><path class="cls-83" d="m729.87,448.43v-2.48c.02-2.1,1.72-3.79,3.81-3.78h.24c2.09,0,3.78,1.72,3.78,3.81v2.48c-.02,2.1-1.72,3.79-3.82,3.78h-.24c-2.09,0-3.78-1.71-3.78-3.81Z"/><path class="cls-35" d="m743.29,447.36v-2.48c.02-2.1,1.72-3.79,3.81-3.78h.24c2.09,0,3.79,1.71,3.78,3.81v2.48c-.02,2.1-1.72,3.79-3.82,3.78h-.24c-2.09,0-3.78-1.71-3.78-3.81Z"/><path class="cls-63" d="m793.05,429.74l-25.53,6.99c-1.92.53-3.19,2.35-3.02,4.33.2,2.36.54,5.02,1.07,4.79.93-.39,40.94-10.4,40.94-10.4l-13.47-5.71Z"/><g class="cls-108"><g><path class="cls-120" d="m764.85,644.5c-4.54-.07-2.48-55.81-1.98-62.17,1.93-24.79,7-50.37,19.85-71.98,24.33-40.91,56.96-49.7,104.19-24.04,39.35,21.38,63.36,31.48,76.53,31.91,3.26.11,5.47,3.4,4.4,6.49-5.67,16.42-23.03,54.84-62.24,58.86-50.01,5.12-115.34-17.08-129.16,12.8-4.2,9.09-7.67,18.73-8.95,28.71-.56,4.34,2.35,19.49-2.64,19.42h0Z"/><path class="cls-49" d="m879.26,532.93c-3.24-1.85-6.61-3.52-10.01-5.09-3.41-1.56-6.88-2.96-10.39-4.26-7.02-2.58-14.27-4.5-21.63-5.43-3.68-.46-7.38-.64-11.06-.45-3.67.18-7.32.75-10.82,1.81l-1.3.43c-.43.14-.87.27-1.29.45-.84.36-1.69.68-2.53,1.06-.84.4-1.68.79-2.51,1.2l-2.47,1.28c-3.26,1.76-6.4,3.74-9.35,5.98-5.91,4.46-11.03,9.94-15.07,16.15-4.05,6.21-7.13,13.05-9.43,20.14-1.14,3.55-2.08,7.17-2.89,10.82l-.57,2.75c-.19.91-.34,1.84-.51,2.76-.36,1.84-.61,3.7-.91,5.55-1.05,7.43-1.63,14.92-1.96,22.44-.01.24-.21.42-.45.41-.23,0-.41-.2-.41-.43.03-7.55.45-15.1,1.3-22.61.46-3.75,1.02-7.5,1.77-11.22.76-3.72,1.65-7.41,2.75-11.05,2.24-7.25,5.22-14.36,9.4-20.79,4.14-6.44,9.42-12.16,15.52-16.81,3.04-2.33,6.28-4.4,9.63-6.23l2.54-1.33c.85-.43,1.72-.83,2.58-1.25.87-.4,1.79-.74,2.68-1.12.45-.2.91-.33,1.37-.48l1.39-.45c3.72-1.11,7.57-1.69,11.41-1.87,3.85-.16,7.69.08,11.48.6,3.79.51,7.52,1.35,11.18,2.37,3.66,1.03,7.26,2.26,10.79,3.65,3.53,1.38,6.98,2.96,10.36,4.66,3.38,1.71,6.69,3.53,9.88,5.59.21.13.27.41.13.62-.13.2-.39.26-.6.15h-.01s.02,0,.02,0Z"/><path class="cls-53" d="m397.71,299.21c12.44-15.32,66.28-81.52,70.08-83.32,1.07-.51,2.17-.61,2.17-.61,2.21-.21,4.15.83,5.52,1.85,0,0,34.29,74.7,44.17,107.17l-117.63,16.72-4.3-41.81Z"/><path class="cls-65" d="m584.42,315.08c-10.65-16.63-21.12-29.24-29.07-37.96-7.22-7.93-22.91-24.04-46.39-40.28-12.06-8.34-22.99-14.5-31.55-18.9-1.42-1.09-3.59-2.38-6.38-2.63-.37-.03-.73-.04-1.08-.04,13.29,36.81,26.57,73.61,39.86,110.41,24.87-3.54,49.74-7.07,74.61-10.61h0Z"/><path class="cls-65" d="m368.58,259.39s10.68,1.11,28.45,10.42c17.76,9.31,72.59,53.93,72.59,53.93l-66.39,19.24-39.93-82.19s2.07-1.99,5.29-1.41h0Z"/><path class="cls-53" d="m314.21,337.16l44.2-70.74s3.41-6.07,7.28-6.62l36.6,67.8-89.59,12.74,1.52-3.17h0Z"/><path class="cls-53" d="m962.34,292.66l24.72-13.89c.98-.46,1.81-.5,1.96-.23.15.26-.29.96-1.15,1.57-8.08,4.89-16.16,9.79-24.24,14.67l-1.28-2.12h0Z"/><path class="cls-65" d="m770.16,490.63c2.56-6.36,36.93-55.49,53.79-75.32,16.85-19.82,46.06-46.59,54.65-54.47,8.59-7.87,74.73-52.2,74.73-52.2l-8.28-13.69s-62.41,34.59-80.96,41.01c-18.55,6.42-54.24,18.95-74.45,22.64-20.21,3.69-95.57,15.12-103.33,14.47-7.76-.65-19.39-5.36-19.39-5.36l26.22,43.32c1.86-1.74,3.91-3.31,6.17-4.68,17.49-10.59,40.25-5,50.84,12.5,10.59,17.49,4.99,40.26-12.5,50.85-2.26,1.37-4.61,2.46-7.01,3.3l.42.69,20.79,51.6s15.75-28.3,18.31-34.66Zm-2.84-102.53s14.11,3.75,42.74-12.52l9.96,16.46s-25.47,13.82-29.71,34.02l-22.99-37.97Z"/><path class="cls-53" d="m811.53,345.1l-5.61,3.4c-1.12.68-1.48,2.14-.8,3.27l33.28,54.98c.68,1.12,2.14,1.48,3.26.8l5.61-3.4c1.12-.68,1.48-2.14.8-3.27l-33.28-54.98c-.68-1.12-2.14-1.48-3.27-.8Z"/><path class="cls-53" d="m794.47,464.59l-60.98-100.75c-.74-1.22-.34-2.82.88-3.57l6.12-3.7c1.22-.74,2.82-.35,3.57.88l60.98,100.75c.74,1.22.35,2.82-.88,3.57l-6.12,3.7c-1.22.74-2.82.35-3.57-.88Z"/><path class="cls-53" d="m969.08,298.07c-.11,2.76-2.16,4.61-3.17,5.52-3,2.71-5.09,1.8-7.3,4.32-.55.63-1.13,2.22-2.26,5.37-2.25,6.29-2.47,7.79-4.2,8.96-1.74,1.17-3.6,1.06-4.08,1.03-3.82-.31-6.06-4.2-6.06-4.2l-4.93-8.14-1.35-2.23-4.93-8.14s-2.41-3.79-.92-7.32c.19-.44.96-2.14,2.8-3.14,1.83-.99,3.26-.49,9.88.43,3.32.46,4.99.69,5.8.49,3.26-.8,3.42-3.07,7.21-4.47,1.28-.47,3.86-1.42,6.36-.24,2.32,1.09,7.23,9.2,7.12,11.76h0Z"/><path class="cls-112" d="m349.76,421.79l-50.6,44.91c-2.25,2-5.74,1.79-7.74-.46l-52.46-59.12c-2-2.25-1.79-5.74.46-7.74l48.88-43.38c2.25-2,5.74-1.79,7.74.46l53.99,60.85c1.16,1.31,1.04,3.32-.27,4.48h0Z"/><path class="cls-11" d="m360.41,413.23c-6.05-6.82-16.58-7.44-23.39-1.39l-50.22,44.58c-6.82,6.05-5.16,14.55.89,21.37l2.89,3.26,72.73-64.55-2.89-3.26Z"/><path class="cls-53" d="m166.98,239.62c-3.26-1.44-8.52-4.2-13.44-2.5-.58.2-1.17,1.51-2.09,1.42-.94-.09-1.6-1.33-2.02-2.41-.41,1.1-1.1,2.55-2.3,3.97-2.84,3.36-6.58,4.3-7.99,4.58.53.98,1.05,1.97,1.58,2.95-2.59,2.19-5.19,4.37-7.78,6.56,20.68,31.92,48.33,48.48,67.84,41.9,3.82-1.29,8.6-3.9,13.38-9.53-.6-.58-4.03-3.89-4.03-3.89,0,0-8.35-8.92-12.49-14.57-4.14-5.65-16.86-22.36-30.65-28.47h0Z"/><path class="cls-65" d="m133.25,253.93c-1.87.45-6.15,2-12.1,1.4-1.55-.16-5.27.19-9.09-2.53-2.37-1.69-23.48-24.49-26.26-27.13-1.24-1.18-2.09-3.59-4.47-7.83-7.98-14.18-8.98-17.15-13.3-20.17-4.23-2.96-8.43-3.48-10.5-4.03-2.67-.71-4.63-.87-5.96.22-2.81,2.3-1.49,9.95,1.62,15.59,2.8,5.07,7.9,8.84,18.1,16.37,4.75,3.51,10.14,7.19,9.46,10.7-.26,1.33-1.64,3.94-.77,6.39.23.66.62,1.28.62,1.28.91,1.42,2.13,2.22,2.79,2.59,3.71,2.05,6.9-.4,10.19-.01,5.77.69,5.13,9.31,12.59,16.81,6.11,6.15,10.32,4.17,23.27,11.99,5.42,3.27,9.46,6.51,11.94,8.64,18.77,18.81,32.19,34.04,41.19,44.78,14.31,17.08,16,21.06,26.84,31.57,4.7,4.56,9.39,8.66,14.11,15.91,5.95,9.14,8.56,18.09,9.84,24.35l54.67-49.54c-4.96-1.67-12.17-4.64-19.73-10.03-9.41-6.71-15.39-14.34-22.59-23.54-11.38-14.53-11.76-19.07-18.57-22.58-1.06-.55-8.55-4.29-12.93-8.5-.01-.01-.04-.04-.06-.06-20.81,1.49-34.34-3.47-43.04-8.57-14.69-8.62-26.33-26.8-37.86-24.06h0Z"/><path class="cls-53" d="m142.6,214.61c-.16-.16-.32-.3-.45-.42,2.4-3.49,6.47-9.68,5.48-10.55-1.04-.92-7.2,4.43-10.28,7.22-1.09-.34-2.18-.69-3.27-1.04-.44-1.95-2.71-11.85-4.34-11.67-1.62.17-1.78,10.22-1.81,12.24-1.48.81-2.95,1.62-4.42,2.43-5.83-4.38-12.67-9.15-13.62-8.13-.89.96,3.76,6.78,8.65,12.38-.91,1.34-1.83,2.68-2.74,4.02-5.44-.6-12.31-1.14-12.55-.01-.25,1.16,6.71,3.67,11.88,5.37.42,1.29.83,2.59,1.25,3.88-1.76,1.86-7.38,7.87-6.49,8.95.86,1.04,7.29-2.94,9.56-4.38,1.32,1.48,3.19,3.3,5.71,5.01,5.68,3.85,17.1,8.77,22.55,4.36,6.33-5.12,3.18-21.68-5.1-29.65h0Z"/><path class="cls-53" d="m295.02,342.98l-69.29,61.51c-1.58,1.4-1.72,3.82-.32,5.4l10.27,11.57c1.4,1.58,3.82,1.72,5.39.32l69.29-61.51c1.58-1.4,1.72-3.82.32-5.39l-10.27-11.57c-1.4-1.58-3.82-1.72-5.39-.32Z"/><path class="cls-65" d="m686.73,235.45l-6.73,9.92,18.72,12.7,6.73-9.92-18.72-12.7Z"/><path class="cls-65" d="m672.81,385.83l-95.69-64.93c-1.58-1.07-2-3.25-.93-4.82l6.01-8.85c1.07-1.58,3.25-2,4.82-.92l95.69,64.93c1.58,1.07,2,3.25.92,4.82l-6.01,8.85c-1.07,1.58-3.25,2-4.82.92Z"/><path class="cls-65" d="m688.64,380.05l-112.01-76c-1.01-.68-1.27-2.06-.59-3.07l3.82-5.62c.68-1.01,2.06-1.27,3.07-.59l112.01,76c1.01.68,1.27,2.06.59,3.07l-3.82,5.62c-.68,1.01-2.06,1.27-3.07.59Z"/><path class="cls-65" d="m703.33,304.31c9.58-12.52,13.88-13.34,15.71-18.32,7.05-19.26-48.8-56.03-62.69-51.84-7.22,2.18-11.72,6.81-11.72,6.81-5.81,5.83-4.09,9.44-9.29,16.11-5.44,6.97-9.43,5.75-15.29,12.05-3.26,3.51-7.07,9.34-8.68,19.25,25.89,16.65,49.31,34.38,75.2,51.03.89-5.2,5.13-13.84,9.12-22.23,1.58-3.29,3.75-7.77,7.64-12.86Z"/><path class="cls-53" d="m681.55,242.28c-1.56-.22-5.91-.74-12.16,6.3-2.87,4.23-5.74,8.47-8.62,12.71-5.45,8.03-3.34,19.06,4.69,24.51,8.03,5.45,19.05,3.34,24.51-4.69l8.62-12.71c4.22-7.6,2.75-11.65,2.04-13.07-1.08-2.18-16.72-12.71-19.08-13.05Z"/><path class="cls-53" d="m693.31,245.68c-9.21-6.25-12.29-17.94-6.84-25.97l8.61-12.7c.46-.82,5.47-9.32,15.4-10.21,6.96-.62,12.01,2.89,13.35,3.89,1.05.62,7.38,4.56,9.04,12.67,1.84,8.98-3.6,15.59-4.29,16.39l-8.61,12.7c-5.45,8.03-17.44,9.49-26.66,3.24Z"/><path class="cls-65" d="m616.89,300.63c.37-5.81,7.47-11.49,14.21-12.32,4.47-.55,9.37,1.35,13.14,4,4.63,3.25,3.95,5.54,10.33,10.56,4.11,3.24,6.59,4.01,7.49,4.26,4.32,1.2,7.71.2,9.6-.05,8.06-1.06,19.75,5.35,21.64,14.36,1.39,6.61-2.62,14.11-9.49,19.13-8.79-3.09-21.06-7.9-35.13-15.09-19.41-9.92-32.3-16.69-31.79-24.85h0Z"/><path class="cls-53" d="m679.88,367.33l-85.58-58.06c-8-8.06-10.35-18.3-6.55-24.51,4.19-6.84,14.89-7.23,21.32-6.04,19,3.51,16.01,23.76,38.13,37.84,16.19,10.31,39.24,13.12,51.31,23.3,5.7,4.8,6.73,9.38,6.97,10.62.88,4.68-.78,9.05-.78,9.05-.45,1.17-1.04,2.31-1.76,3.39-5.12,7.55-15.5,9.54-23.06,4.41Z"/><path class="cls-65" d="m731.27,225.49c.83-1.64,2.56-5.65,1.88-10.77-.39-2.94-1.44-5.2-2.25-6.62.07-.3.21-.89.41-1.62,1.6-5.93,3.47-8.61,2.18-10.63-.09-.14-.27-.41-.6-.68-2.58-1.75-5.16-3.5-7.74-5.25-.16-.1-.42-.24-.74-.33-2.14-.61-4.11,2.24-9.18,6.26-.56.45-1.02.79-1.24.96-1.55-.14-3.58-.13-5.86.38-5.4,1.22-8.82,4.54-10.23,6.1,4.2.76,11.02,2.55,18.2,7.13,8.03,5.13,12.78,11.36,15.19,15.08h0Z"/><path class="cls-96" d="m758.55,574.06c6.41-146.22-116.32-270.37-274.13-277.29-157.81-6.92-290.93,106.01-297.34,252.23-6.41,146.22,116.33,270.37,274.13,277.29,157.81,6.92,290.93-106.01,297.34-252.23Z"/><g class="cls-56"><path class="cls-5" d="m545.92,562.84c-.07,46.74-3.27,93.58-11.51,139.66-2.08,11.51-4.5,22.96-7.38,34.31-2.89,11.34-6.22,22.59-10.31,33.58-4.12,10.96-8.9,21.77-15.38,31.65-3.27,4.9-6.97,9.6-11.54,13.46-2.29,1.92-4.79,3.62-7.55,4.87-2.76,1.24-5.77,2.02-8.82,2.08-3.05.09-6.11-.51-8.92-1.64-2.82-1.12-5.39-2.75-7.73-4.6-4.68-3.74-8.46-8.39-11.79-13.25-6.6-9.8-11.44-20.59-15.6-31.54-4.14-10.97-7.5-22.21-10.42-33.55-2.91-11.34-5.35-22.79-7.45-34.29-4.2-23.02-7.06-46.26-8.99-69.56-1.92-23.31-2.88-46.69-3-70.07-.06-11.69.26-23.38.68-35.06.44-11.68,1.08-23.36,1.94-35.01,1.73-23.32,4.31-46.58,8.15-69.65,1.93-11.54,4.17-23.02,6.87-34.4,2.71-11.38,5.86-22.67,9.76-33.71,1.96-5.52,4.11-10.98,6.55-16.31,2.44-5.33,5.18-10.54,8.39-15.47,3.22-4.9,6.92-9.59,11.53-13.34,2.3-1.86,4.85-3.48,7.63-4.57,2.77-1.11,5.78-1.67,8.77-1.56,2.99.09,5.95.83,8.67,2.03,2.73,1.2,5.23,2.84,7.53,4.7,4.6,3.74,8.4,8.31,11.78,13.11,6.72,9.67,11.77,20.32,16.16,31.17,4.35,10.87,7.95,22.03,11.07,33.3,3.12,11.28,5.76,22.68,8.04,34.15,9.05,45.92,12.72,92.76,12.85,139.51h.01Zm-3.46,0c.04-23.29-.84-46.59-2.78-69.8-1.91-23.21-4.8-46.35-9.1-69.23-2.15-11.44-4.66-22.82-7.64-34.07-2.99-11.24-6.44-22.38-10.65-33.22-4.23-10.81-9.14-21.43-15.66-31.03-3.27-4.76-6.96-9.29-11.4-12.97-2.21-1.83-4.62-3.44-7.22-4.62-2.6-1.17-5.4-1.94-8.24-2.01-2.85-.09-5.69.49-8.32,1.57-2.64,1.07-5.07,2.65-7.28,4.47-4.42,3.68-8.01,8.3-11.12,13.16-3.11,4.89-5.76,10.06-8.11,15.37-2.36,5.3-4.43,10.74-6.32,16.23-3.76,11-6.76,22.26-9.33,33.61-2.57,11.35-4.67,22.81-6.47,34.32-3.57,23.02-5.89,46.22-7.36,69.47-1.48,23.25-1.99,46.55-1.95,69.85-.06,23.29.71,46.59,2.44,69.81,1.74,23.22,4.42,46.38,8.41,69.32,2,11.46,4.34,22.87,7.15,34.16,2.81,11.29,6.07,22.47,10.08,33.36,4.03,10.87,8.75,21.56,15.12,31.2,3.21,4.77,6.86,9.31,11.28,12.9,2.21,1.78,4.62,3.32,7.22,4.38,2.59,1.06,5.37,1.64,8.16,1.55,2.79-.07,5.53-.8,8.08-1.97,2.55-1.18,4.91-2.8,7.07-4.64,4.33-3.72,7.9-8.3,11.05-13.12,6.26-9.71,10.91-20.43,14.9-31.32,3.96-10.92,7.18-22.11,9.96-33.4,2.77-11.29,5.09-22.71,7.07-34.18,3.97-22.94,6.61-46.11,8.36-69.33,1.78-23.22,2.6-46.52,2.59-69.81h-.01Z"/><path class="cls-5" d="m663.81,562.84c-.16,30.1-4.03,60.21-12.09,89.24-8.2,28.96-20.55,56.82-37.33,81.83-8.39,12.49-17.89,24.25-28.51,34.92-10.61,10.67-22.35,20.24-35.1,28.26-12.76,7.99-26.53,14.39-40.95,18.73-14.41,4.35-29.46,6.62-44.52,6.64-15.06,0-30.11-2.26-44.53-6.6-14.43-4.33-28.21-10.72-40.99-18.7-12.75-8.01-24.51-17.58-35.15-28.24-10.64-10.66-20.16-22.42-28.57-34.91-16.81-25.02-29.19-52.89-37.43-81.86-4.05-14.51-7.07-29.31-9.06-44.25-1.98-14.93-2.98-29.99-3.05-45.06.08-15.07,1.08-30.13,3.08-45.06,2-14.93,5.03-29.73,9.09-44.23,8.25-28.96,20.66-56.82,37.48-81.8,8.41-12.48,17.94-24.23,28.57-34.87,10.63-10.64,22.38-20.2,35.14-28.19,12.76-7.96,26.55-14.3,40.95-18.62,14.4-4.34,29.42-6.61,44.46-6.63,15.04.03,30.06,2.31,44.45,6.66,14.4,4.34,28.17,10.69,40.92,18.66,12.74,8,24.47,17.56,35.09,28.21,10.62,10.65,20.12,22.4,28.52,34.88,16.79,24.99,29.16,52.83,37.38,81.78,8.07,29.02,11.96,59.12,12.15,89.22h0Zm-3.96,0c-.04-29.76-3.75-59.55-11.6-88.27-7.9-28.68-19.78-56.37-36.14-81.27-8.18-12.44-17.46-24.16-27.87-34.82-10.41-10.64-21.9-20.27-34.47-28.27-12.59-7.96-26.18-14.36-40.43-18.69-14.25-4.33-29.12-6.61-44.02-6.66-14.9.06-29.77,2.35-44,6.7-14.25,4.34-27.83,10.76-40.4,18.73-12.56,8.01-24.04,17.64-34.42,28.29-10.38,10.66-19.65,22.39-27.81,34.83-16.33,24.9-28.19,52.57-36.05,81.24-3.91,14.35-6.74,28.98-8.67,43.72-1.92,14.74-2.88,29.61-2.91,44.48.04,14.87,1,29.74,2.93,44.48,1.93,14.74,4.77,29.36,8.7,43.71,7.88,28.66,19.75,56.31,36.1,81.19,8.16,12.43,17.43,24.14,27.82,34.79,10.39,10.63,21.86,20.26,34.41,28.24,12.57,7.95,26.14,14.32,40.37,18.65,14.21,4.35,29.05,6.66,43.94,6.73,14.88-.06,29.73-2.35,43.95-6.69,14.23-4.33,27.82-10.69,40.39-18.63,12.57-7.98,24.05-17.6,34.46-28.22,10.4-10.64,19.69-22.35,27.87-34.78,16.38-24.88,28.28-52.55,36.2-81.22,7.87-28.71,11.59-58.5,11.66-88.26Z"/><path class="cls-5" d="m233.68,460.1l59.61-.48,59.61-.27,119.22-.22,119.22.24,59.61.3,59.61.52c.1,0,.17.08.17.18s-.08.17-.17.17l-59.61.52-59.61.3-119.22.24-119.22-.22-59.61-.27-59.61-.48c-.14,0-.26-.12-.26-.26s.12-.26.26-.26Z"/><path class="cls-5" d="m302.84,360.24c14.11-.22,28.21-.32,42.32-.48l42.32-.27c14.11-.12,28.21-.11,42.32-.14l42.32-.08,84.64.24,42.32.3c14.11.18,28.21.28,42.32.52.1,0,.17.08.17.18s-.08.17-.17.17c-14.11.24-28.22.35-42.32.52l-42.32.3-84.64.24-42.32-.08c-14.11-.03-28.21-.02-42.32-.14l-42.32-.27c-14.11-.16-28.21-.26-42.32-.48-.14,0-.26-.12-.26-.26s.12-.25.26-.26Z"/><path class="cls-5" d="m212.97,559.97l64.79-.48,64.79-.27,129.58-.22,129.58.24,64.79.3,64.79.52c.1,0,.17.08.17.18s-.08.17-.17.17l-64.79.52-64.79.3-129.58.24-129.58-.22-64.79-.27-64.79-.48c-.14,0-.26-.12-.26-.26s.12-.26.26-.26Z"/><path class="cls-5" d="m233.68,659.82l59.61-.48,59.61-.27,119.22-.22,119.22.24,59.61.3,59.61.52c.1,0,.17.08.17.18s-.08.17-.17.17l-59.61.52-59.61.3-119.22.24-119.22-.22-59.61-.27-59.61-.48c-.14,0-.26-.12-.26-.26s.12-.26.26-.26Z"/><path class="cls-5" d="m649.95,760.85h-338.57c-.5,0-.92-.41-.92-.92s.41-.92.92-.92h338.57c.5,0,.92.41.92.92s-.41.92-.92.92Z"/></g><path class="cls-79" d="m645.31,826.07c.18-1.63.36-3.27.54-4.89,1.87-16.63,10.5-31.56,23.63-40.85l1.02-.72c15.82-11.19,33.98-18.07,52.9-20.04,0,0,38.47-3.08,43.62-3.45,29.75-82.09,208.76-87.55,256.95,51.64,0,0,4.43,11.8,6.77,17.84,3.78,9.75-3.31,20.26-13.84,20.52-6.2.15-12.38.33-18.55.49-1.54.42-3.12.65-4.72.65h-301.37l-32.01-2.22c-9.17-.64-15.98-9.28-14.93-18.97h0Z"/><path class="cls-128" d="m646.38,838.67h.96c1.86,0,3.38-1.61,3.38-3.58v-18.01c0-1.98-1.51-3.58-3.38-3.58s-3.27,1.48-3.37,3.38l-.96,18.01c-.11,2.06,1.43,3.79,3.37,3.79h0Z"/><path class="cls-4" d="m658.26,810.04h-10.05c3.74-12.04,11.16-22.55,21.28-29.7l1.02-.72c1.05-.74,2.11-1.46,3.18-2.17-2.05,7.6-4.59,18.02-6.25,25.02-1.06,4.45-4.84,7.57-9.17,7.57h0Z"/><path class="cls-32" d="m860.4,768.78h-31.07c-2.42,0-4.13,2.56-3.29,4.97,1.42,4.08,4.8,9.29,12.85,9.9,7.24.55,16.36-3.8,23.24-7.94,3.12-1.87,1.85-6.93-1.74-6.93h0Z"/><path class="cls-13" d="m912.17,850.06c-5.68-21.57,7.48-43.58,29.41-49.17,21.92-5.59,44.3,7.36,49.98,28.93s-7.48,43.58-29.41,49.17c-21.92,5.59-44.3-7.36-49.98-28.93Z"/><path class="cls-12" d="m928.32,863.07c-13.01-12.79-13.01-33.54,0-46.33s34.09-12.79,47.1,0c13.01,12.79,13.01,33.54,0,46.33s-34.09,12.79-47.1,0Z"/><path class="cls-117" d="m671.46,853.59c-7.71-20.95,3.3-44.08,24.6-51.66,21.29-7.58,44.81,3.25,52.52,24.2,7.71,20.95-3.3,44.08-24.6,51.66-21.29,7.58-44.81-3.25-52.51-24.2Z"/><path class="cls-48" d="m677.23,845.77c-3.28-17.8,8.73-34.85,26.83-38.08s35.43,8.59,38.71,26.39-8.73,34.85-26.83,38.08c-18.1,3.23-35.43-8.59-38.71-26.39Z"/><path class="cls-6" d="m682.84,852.01c.11,0,.22-.02.32-.07.42-.17.63-.66.44-1.08-1.49-3.47-2.25-7.16-2.25-10.97,0-15.54,12.85-28.18,28.65-28.18,4.9,0,9.74,1.24,13.98,3.58.4.22.91.08,1.14-.31.23-.4.08-.9-.32-1.12-4.5-2.48-9.62-3.79-14.8-3.79-16.72,0-30.32,13.38-30.32,29.83,0,4.02.8,7.93,2.38,11.61.14.31.44.5.77.5Z"/><path class="cls-6" d="m923.9,852.01c.11,0,.22-.02.32-.07.42-.17.63-.66.44-1.08-1.49-3.47-2.25-7.16-2.25-10.97,0-15.54,12.85-28.18,28.65-28.18,4.9,0,9.74,1.24,13.98,3.58.4.22.91.08,1.14-.31.22-.4.08-.9-.32-1.12-4.5-2.48-9.62-3.79-14.8-3.79-16.72,0-30.32,13.38-30.32,29.83,0,4.02.8,7.93,2.39,11.61.14.31.44.5.77.5Z"/><path class="cls-6" d="m902.25,827.72c.39,0,.75-.27.82-.67,3.62-18.73,14.47-30.66,32.24-35.44,13.34-3.59,25.79-1.6,25.92-1.58.45.07.89-.23.96-.67.08-.45-.23-.87-.68-.94-.52-.09-12.89-2.07-26.58,1.6-12.7,3.41-28.82,12.54-33.5,36.73-.08.45.21.88.66.96.05,0,.1.01.16.01h0Z"/><path class="cls-6" d="m760.09,833.87c.45,0,.82-.35.83-.8.47-14.94-3.6-26.65-12.11-34.8-14.05-13.45-35.58-12.38-35.8-12.37-.46.03-.81.42-.78.87.03.45.42.79.88.77.21-.02,21.04-1.03,34.55,11.91,8.15,7.82,12.06,19.11,11.6,33.57-.02.45.35.83.81.85h.03Z"/><path class="cls-99" d="m942.93,762.35h-63.9c-2.41,0-4.36-1.92-4.36-4.29v-33.92c0-6.96,6.1-12.38,13.14-11.73,34.55,3.2,56.67,14.33,65.67,33.83,3.47,7.54-2.13,16.1-10.55,16.1h0Z"/><path class="cls-41" d="m868.21,759.11v-41.59c0-1.78-1.57-3.18-3.37-3-38.1,3.79-63.48,17.29-70.14,45.06-.34,1.42.75,2.77,2.23,2.77h67.99c1.82,0,3.29-1.45,3.29-3.23h0Z"/><path class="cls-74" d="m767.02,756.12c8.25-21.76,22.94-36.17,41.46-43.99-8.47,19.18-16.15,36.32-25.63,47.48-5.58,1.16-10.85-.03-15.84-3.49Z"/><path class="cls-6" d="m867.01,840.64c2.65,0,4.84-2.09,4.91-4.7l3.45-122.32c.07-2.46-1.91-4.55-4.41-4.65-17.52-.74-33.14-.8-46.94,5.89-15.98,7.74-27.32,23.31-35.7,48.98l-.04.11v.12l-1.36,75.39,80,1.18h.07Zm3.29-4.75c-.05,1.75-1.52,3.15-3.29,3.15h-.05l-78.38-1.16,1.33-73.68c8.23-25.17,19.3-40.39,34.83-47.92,13.48-6.53,28.25-6.48,46.15-5.73,1.62.07,2.9,1.42,2.86,3.01l-3.45,122.32h0Z"/><path class="cls-109" d="m781.27,761.7l7.12-7.35c2.97-3.06,6.7-5.15,10.76-6.02l14.09-3.01c3.87-.83,7.57,2.05,7.99,6.21l.1.98c.43,4.24-2.72,7.92-6.74,7.88l-18.15-.22c-2.53-.03-4.83,1.56-5.83,4.02l-.33.83c-.44,1.09-1.46,1.81-2.58,1.81h-4.46c-2.53,0-3.77-3.26-1.96-5.12h0Z"/><path class="cls-3" d="m1003.39,803.52c1.64,5.38,5.33,9.05,8.24,8.19,2.91-.86,3.94-5.92,2.3-11.3-1.63-5.39-5.32-9.05-8.24-8.19-2.91.86-3.93,5.92-2.3,11.3Z"/><path class="cls-102" d="m1017.46,816.83h8.01c4.86,0,8.8,3.87,8.8,8.65v4.55c0,4.78-3.94,8.65-8.8,8.65h-8.01c-4.86,0-8.8-3.87-8.8-8.65v-4.55c0-4.78,3.94-8.65,8.8-8.65Z"/><path class="cls-136" d="m944.79,670.28h-143.29c-7.61,0-13.8,6.08-13.8,13.57v11.08c0,7.49,6.18,13.57,13.8,13.57h143.29c7.61,0,13.8-6.08,13.8-13.57v-11.08c0-7.49-6.18-13.57-13.8-13.57Z"/><path class="cls-53" d="m957.55,691.05c.44,0,.81-.35.81-.8s-.36-.8-.81-.8l-168.84-.86c-.44,0-.81.35-.81.8s.36.8.81.8l168.84.86Z"/><path class="cls-53" d="m860.36,689.76v3.78c0,1.18,1.04,2.42,2.24,2.42h20.14c1.2,0,2.24-1.24,2.24-2.42v-3.78h3.11s.19-.09.19-.06v6.79c0,1.18-1.23,2.12-2.43,2.12h-26.37c-1.2,0-2.12-.94-2.12-2.12v-6.79s.04.06.04.06h2.96Z"/><path class="cls-82" d="m814.38,641.5h105.99c7.19,0,13.02,5.74,13.02,12.81v3.91c0,7.08-5.83,12.81-13.02,12.81h-105.99c-7.19,0-13.02-5.74-13.02-12.81v-3.91c0-7.07,5.83-12.81,13.02-12.81Z"/><path class="cls-6" d="m932.59,657.73c.44,0,.81-.35.81-.79s-.36-.8-.81-.8l-130.46-.67c-.44,0-.81.35-.81.8s.36.8.81.8l130.46.67Z"/><path class="cls-6" d="m857.35,656.68v2.79c0,.91.94,1.64,1.87,1.64h15.56c.93,0,1.78-.73,1.78-1.64v-2.79h2.35s.35-.21.35-.18v5.24c0,.91-1.15,1.43-2.08,1.43h-20.37c-.93,0-1.56-.51-1.56-1.43v-5.24s-.05.18-.05.18h2.15,0Z"/><path class="cls-69" d="m679.43,443.85l-18.51-11.47c-.38-.24-.84-.32-1.27-.23l-24.08,4.94c-.65.13-1.17.62-1.34,1.26-.17.64.03,1.32.52,1.76l14.43,12.97,30.26-9.23h0Z"/><path class="cls-36" d="m519.09,465.2s224.37-40.22,233.13-37.42c8.76,2.8,24.4,12.09,29.02,12.11,4.61.02,20.75,2.85,16.55,14.37-4.19,11.52-190.26,46.81-211.91,39.34-21.65-7.46-76.5-21.52-76.5-21.52,0,0-5.05-7.86,9.71-6.89h0Z"/><path class="cls-103" d="m584.04,454.39l-32.28-17.96c-2.02-1.12-3.69-2.8-4.81-4.82l-13.05-23.59c-1.03-1.87-3.17-2.85-5.26-2.4-6.69,1.41-20.57,4.53-20.64,6.1-.09,2.08,6.68,54.2,6.68,54.2l69.36-11.52h0Z"/><path class="cls-44" d="m521.19,472.66l-2.69,10.99c-.46,1.85-.03,3.74,1.14,5.25,1.17,1.5,2.97,2.31,4.89,2.32l11.4.04c1.8,0,3.52-.69,4.7-2.04l20.37-23.17-39.82,6.62h0Z"/><path class="cls-71" d="m638.7,509.45s6.89,8.5,18.13,8.55c11.24.04,25.1-3.02,27.71-6.99,2.61-3.97,8.26-33.35-14.6-29.2-22.85,4.14-49.55,17.37-31.24,27.65h0Z"/><path class="cls-34" d="m626.01,479.04l53.32-9.24-44.91,57.4c-.63.81-1.57,1.31-2.59,1.39l-31.94,2.59c-1.38.11-2.71-.57-3.42-1.75-.71-1.19-.7-2.68.04-3.85l29.49-46.53h0Z"/><path class="cls-15" d="m681.6,511.8c.14.03.27.04.4.02.71-.09,1.43-.83,2.13-2.19,2.25-4.38,3.7-13.76-.14-20.92-1.14-2.12-3.24-3.48-5.64-3.65-1.97-.14-4.48.44-5.28,3.99-1.26,5.57,4.06,18.42,7.08,21.74.53.58,1.01.92,1.45,1.01h0Zm-2.51-25.66c1.71.36,3.21,1.47,4.04,3.03,3.63,6.76,2.22,15.94.13,20.01-.61,1.18-1.13,1.64-1.39,1.67-.03,0-.34.02-1.01-.72-3.14-3.45-7.96-15.95-6.85-20.87.53-2.35,1.93-3.4,4.27-3.24.27.02.54.06.81.11Z"/><path class="cls-51" d="m509.26,424.07l5.53.02,5.06,35.37-5.82,1.34-4.77-36.72Z"/><path class="cls-45" d="m600.09,469.07v-2.15c.01-1.82,1.5-3.29,3.32-3.29h.21c1.82,0,3.29,1.49,3.28,3.31v2.15c-.01,1.82-1.49,3.29-3.32,3.29h-.21c-1.82,0-3.29-1.49-3.28-3.31Z"/><path class="cls-64" d="m612.71,468.14v-2.15c.02-1.82,1.5-3.29,3.32-3.28h.21c1.82,0,3.29,1.49,3.29,3.31v2.15c-.02,1.82-1.5,3.29-3.32,3.29h-.21c-1.82,0-3.29-1.49-3.28-3.31Z"/><path class="cls-87" d="m625.39,463.13c0-1.82,1.49-3.29,3.31-3.28h.21c1.82,0,3.29,1.49,3.28,3.31v2.15c-.02,1.82-1.5,3.29-3.32,3.28h-.21c-1.82,0-3.29-1.49-3.28-3.31v-2.15Z"/><path class="cls-67" d="m637.04,463.37v-2.15c.02-1.82,1.5-3.29,3.32-3.29h.21c1.82,0,3.29,1.49,3.28,3.31v2.15c-.02,1.82-1.5,3.29-3.32,3.29h-.21c-1.82,0-3.29-1.49-3.28-3.31Z"/><path class="cls-126" d="m650.68,459.34c0-1.82,1.49-3.29,3.31-3.28h.21c1.82,0,3.29,1.49,3.28,3.31v2.15c-.02,1.82-1.5,3.29-3.32,3.28h-.21c-1.82,0-3.29-1.49-3.28-3.31v-2.15Z"/><path class="cls-114" d="m663.31,459.59v-2.15c.01-1.82,1.5-3.29,3.32-3.29h.21c1.82,0,3.29,1.49,3.29,3.31v2.15c-.02,1.82-1.49,3.29-3.32,3.29h-.21c-1.82,0-3.29-1.49-3.29-3.31Z"/><path class="cls-57" d="m675.96,456.72v-2.15c.01-1.82,1.49-3.29,3.32-3.29h.21c1.82,0,3.29,1.49,3.28,3.31v2.15c-.01,1.82-1.49,3.29-3.32,3.29h-.21c-1.82,0-3.29-1.49-3.28-3.31Z"/><path class="cls-91" d="m687.65,453.65c0-1.82,1.49-3.29,3.31-3.28h.21c1.82,0,3.29,1.49,3.28,3.31v2.15c-.02,1.82-1.5,3.29-3.32,3.28h-.21c-1.82,0-3.29-1.49-3.28-3.31v-2.15Z"/><path class="cls-2" d="m700.29,451.75c0-1.82,1.49-3.29,3.31-3.28h.21c1.82,0,3.29,1.49,3.28,3.31v2.15c-.02,1.82-1.5,3.29-3.32,3.28h-.21c-1.82,0-3.29-1.49-3.28-3.31v-2.15Z"/><path class="cls-40" d="m712.92,451.03v-2.15c.02-1.82,1.5-3.29,3.32-3.29h.21c1.82,0,3.29,1.49,3.28,3.31v2.15c-.02,1.82-1.5,3.29-3.32,3.29h-.21c-1.82,0-3.29-1.49-3.29-3.31Z"/><path class="cls-78" d="m724.59,450.1v-2.15c.02-1.82,1.5-3.29,3.32-3.29h.21c1.82,0,3.29,1.49,3.28,3.31v2.15c-.01,1.82-1.49,3.29-3.32,3.29h-.21c-1.82,0-3.29-1.49-3.29-3.31Z"/><path class="cls-9" d="m767.86,434.77l-22.2,6.08c-1.67.46-2.77,2.04-2.63,3.76.17,2.05.47,4.36.93,4.17.81-.34,35.6-9.04,35.6-9.04l-11.71-4.96Z"/></g></g></g></g></svg>