<?xml version="1.0" encoding="utf-8"?>
<!-- Generator: Adobe Illustrator 27.2.0, SVG Export Plug-In . SVG Version: 6.00 Build 0)  -->
<svg version="1.1" id="Layer_1" xmlns="http://www.w3.org/2000/svg" xmlns:xlink="http://www.w3.org/1999/xlink" x="0px" y="0px"
	 viewBox="0 0 44 44" style="enable-background:new 0 0 44 44;" xml:space="preserve">
<style type="text/css">
	.st0{fill-rule:evenodd;clip-rule:evenodd;fill:#595959;}
</style>
<g>
	<path class="st0" d="M42.5,5.52c0.84,1.15-3.77,5.58-10,9.67c-0.48,0.33-0.98,0.5-1.48,0.82l-2.95,23.6l-1.8,1.15l-2.3-20.33
		c-4.92,2.79-10.33,5.9-13.62,7.37l0.17,8.69l-0.48,0.33l-1.97-8.2c-0.5,0.17-0.98,0.33-0.98,0.17c-0.18-0.17,0-0.5,0.48-0.99
		l-6.73-5.07l0.5-0.33l7.87,3.76c2.8-2.46,7.71-6.22,12.31-9.5L3.77,6.34l1.65-1.15l22.8,6.56c0.5-0.33,0.99-0.65,1.49-0.82
		C35.94,6.84,41.69,4.38,42.5,5.52L42.5,5.52z"/>
</g>
</svg>
