<svg width="49" height="50" viewBox="0 0 49 50" fill="none" xmlns="http://www.w3.org/2000/svg">
<circle cx="24.225" cy="24.925" r="24.225" fill="#FAFCFF"/>
<circle cx="24.225" cy="24.9249" r="18.1688" fill="#212332"/>
<path d="M30.7409 30.1221H17.4276C16.0043 30.1131 14.6346 29.5782 13.5818 28.6204C12.529 27.6626 11.8674 26.3494 11.7243 24.9333C11.5811 23.5172 11.9665 22.0982 12.8063 20.9491C13.6461 19.7999 14.8811 19.0018 16.2738 18.7081C16.6569 16.9211 17.6413 15.3194 19.0627 14.1705C20.4841 13.0215 22.2565 12.3948 24.0842 12.3948C25.9119 12.3948 27.6843 13.0215 29.1057 14.1705C30.5271 15.3194 31.5115 16.9211 31.8947 18.7081C33.2874 19.0018 34.5223 19.7999 35.3622 20.9491C36.202 22.0982 36.5873 23.5172 36.4442 24.9333C36.301 26.3494 35.6395 27.6626 34.5867 28.6204C33.5339 29.5782 32.1642 30.1131 30.7409 30.1221ZM24.0842 14.1461C22.5697 14.1476 21.1079 14.7023 19.9736 15.7058C18.8393 16.7093 18.1107 18.0927 17.9246 19.5957L17.8714 20.359H17.1081C16.0488 20.4013 15.0497 20.8628 14.3307 21.6418C13.6116 22.4207 13.2315 23.4535 13.2738 24.5127C13.3162 25.572 13.7776 26.5711 14.5566 27.2901C15.3356 28.0092 16.3683 28.3893 17.4276 28.347H30.7409C31.8002 28.3893 32.8329 28.0092 33.6119 27.2901C34.3908 26.5711 34.8523 25.572 34.8946 24.5127C34.937 23.4535 34.5569 22.4207 33.8378 21.6418C33.1187 20.8628 32.1197 20.4013 31.0604 20.359H30.2971L30.2084 19.6312C30.0311 18.1278 29.311 16.7408 28.1833 15.7308C27.0556 14.7208 25.598 14.1573 24.0842 14.1461ZM22.3091 37.2225C22.1699 37.2242 22.0325 37.1906 21.9097 37.1249C21.7007 37.0185 21.5423 36.8336 21.4691 36.6108C21.3959 36.3879 21.4139 36.1452 21.5192 35.9355L23.2943 32.3853C23.3412 32.2727 23.4109 32.1709 23.4989 32.0863C23.5869 32.0018 23.6915 31.9363 23.806 31.894C23.9204 31.8517 24.0424 31.8335 24.1643 31.8404C24.2861 31.8474 24.4052 31.8794 24.5141 31.9345C24.6231 31.9895 24.7195 32.0665 24.7973 32.1605C24.8751 32.2545 24.9327 32.3635 24.9665 32.4808C25.0003 32.5981 25.0096 32.7211 24.9937 32.8421C24.9778 32.9631 24.9371 33.0796 24.8742 33.1841L23.099 36.7343C23.0253 36.8807 22.9124 37.0038 22.773 37.09C22.6336 37.1761 22.473 37.222 22.3091 37.2225ZM27.6344 37.2225C27.4952 37.2242 27.3578 37.1906 27.235 37.1249C27.026 37.0185 26.8676 36.8336 26.7944 36.6108C26.7212 36.3879 26.7393 36.1452 26.8445 35.9355L28.6196 32.3853C28.6666 32.2727 28.7362 32.1709 28.8242 32.0863C28.9123 32.0018 29.0168 31.9363 29.1313 31.894C29.2458 31.8517 29.3677 31.8335 29.4896 31.8404C29.6114 31.8474 29.7305 31.8794 29.8395 31.9345C29.9484 31.9895 30.0448 32.0665 30.1226 32.1605C30.2005 32.2545 30.2581 32.3635 30.2919 32.4808C30.3256 32.5981 30.3349 32.7211 30.319 32.8421C30.3031 32.9631 30.2624 33.0796 30.1995 33.1841L28.4244 36.7343C28.3506 36.8807 28.2378 37.0038 28.0983 37.09C27.9589 37.1761 27.7984 37.222 27.6344 37.2225ZM16.9838 37.2225C16.8446 37.2242 16.7072 37.1906 16.5844 37.1249C16.3754 37.0185 16.2169 36.8336 16.1438 36.6108C16.0706 36.3879 16.0886 36.1452 16.1939 35.9355L17.969 32.3853C18.0159 32.2727 18.0856 32.1709 18.1736 32.0863C18.2616 32.0018 18.3662 31.9363 18.4806 31.894C18.5951 31.8517 18.7171 31.8335 18.8389 31.8404C18.9608 31.8474 19.0799 31.8794 19.1888 31.9345C19.2977 31.9895 19.3941 32.0665 19.472 32.1605C19.5498 32.2545 19.6074 32.3635 19.6412 32.4808C19.675 32.5981 19.6842 32.7211 19.6683 32.8421C19.6524 32.9631 19.6118 33.0796 19.5488 33.1841L17.7737 36.7343C17.7 36.8807 17.5871 37.0038 17.4477 37.09C17.3083 37.1761 17.1477 37.222 16.9838 37.2225Z" fill="#FAFCFF"/>
</svg>
