<svg width="57" height="57" viewBox="0 0 57 57" fill="none" xmlns="http://www.w3.org/2000/svg">
<circle cx="28.5" cy="28.5" r="28.5" transform="matrix(0 1 1 0 0 0)" fill="#FAFCFF"/>
<circle cx="21.375" cy="21.375" r="21.375" transform="matrix(0 1 1 0 7.125 7.125)" fill="#212332"/>
<path d="M36.8731 18.1079C38.137 17.6217 39.3783 18.8636 38.892 20.1268L30.4809 41.9987C29.9365 43.4137 27.897 43.3018 27.5114 41.8349L25.055 32.5021C25.0197 32.3685 24.9497 32.2466 24.8519 32.1489C24.7542 32.0512 24.6323 31.9811 24.4987 31.9459L15.165 29.4895C13.6981 29.1033 13.5862 27.0645 15.0019 26.5195L36.8731 18.1079Z" fill="#FAFCFF"/>
</svg>
