<svg width="57" height="57" viewBox="0 0 57 57" fill="none" xmlns="http://www.w3.org/2000/svg">
<circle cx="28.5" cy="28.5" r="28.5" transform="matrix(0 1 1 0 0 0)" fill="#FAFCFF"/>
<circle cx="21.375" cy="21.375" r="21.375" transform="matrix(0 1 1 0 7.125 7.125)" fill="#212332"/>
<path d="M28.3333 15C35.6973 15 41.6667 20.9693 41.6667 28.3333C41.6667 35.6973 35.6973 41.6667 28.3333 41.6667C20.9693 41.6667 15 35.6973 15 28.3333C15 20.9693 20.9693 15 28.3333 15ZM28.3333 20.3333C27.9797 20.3333 27.6406 20.4738 27.3905 20.7239C27.1405 20.9739 27 21.313 27 21.6667V28.3333C27.0001 28.6869 27.1406 29.026 27.3907 29.276L31.3907 33.276C31.6421 33.5189 31.9789 33.6533 32.3285 33.6502C32.6781 33.6472 33.0125 33.507 33.2598 33.2598C33.507 33.0125 33.6472 32.6781 33.6502 32.3285C33.6533 31.9789 33.5189 31.6421 33.276 31.3907L29.6667 27.7813V21.6667C29.6667 21.313 29.5262 20.9739 29.2761 20.7239C29.0261 20.4738 28.687 20.3333 28.3333 20.3333Z" fill="#FAFCFF"/>
</svg>
