<svg width="57" height="57" viewBox="0 0 57 57" fill="none" xmlns="http://www.w3.org/2000/svg">
<circle cx="28.5" cy="28.5" r="28.5" transform="matrix(0 1 1 0 0 0)" fill="#FAFCFF"/>
<circle cx="21.375" cy="21.375" r="21.375" transform="matrix(0 1 1 0 6.87891 6.87927)" fill="#212332"/>
<path d="M38.8921 36.8731C39.3783 38.137 38.1364 39.3783 36.8732 38.892L15.0013 30.4809C13.5863 29.9365 13.6982 27.897 15.1651 27.5114L24.4979 25.055C24.6315 25.0197 24.7534 24.9497 24.8511 24.8519C24.9488 24.7542 25.0189 24.6323 25.0541 24.4987L27.5105 15.165C27.8967 13.6981 29.9355 13.5862 30.4805 15.0019L38.8921 36.8731Z" fill="#FAFCFF"/>
</svg>
