<svg width="57" height="516" viewBox="0 0 57 516" fill="none" xmlns="http://www.w3.org/2000/svg">
<rect width="14" height="492.775" transform="matrix(-1 0 0 1 35 14.6381)" fill="#FAFCFF"/>
<circle cx="28.5" cy="28.5" r="28.5" transform="matrix(-1 0 0 1 57 0)" fill="#FAFCFF"/>
<circle cx="21.375" cy="21.375" r="21.375" transform="matrix(-1 0 0 1 49.875 7.125)" fill="#212332"/>
<circle cx="28.5" cy="28.5" r="28.5" transform="matrix(-1 0 0 1 57 459)" fill="#FAFCFF"/>
<circle cx="21.375" cy="21.375" r="21.375" transform="matrix(-1 0 0 1 50.1206 465.879)" fill="#212332"/>
<rect width="14" height="492.775" transform="matrix(-1 0 0 1 35 14.6381)" fill="#FAFCFF"/>
<circle cx="28.5" cy="28.5" r="28.5" transform="matrix(-1 0 0 1 57 0)" fill="#FAFCFF"/>
<circle cx="21.375" cy="21.375" r="21.375" transform="matrix(-1 0 0 1 49.875 7.125)" fill="#212332"/>
<circle cx="28.5" cy="28.5" r="28.5" transform="matrix(-1 0 0 1 57 459)" fill="#FAFCFF"/>
<circle cx="21.375" cy="21.375" r="21.375" transform="matrix(-1 0 0 1 50.1206 465.879)" fill="#212332"/>
<path d="M39.8921 495.873C40.3783 497.137 39.1364 498.378 37.8732 497.892L16.0013 489.481C14.5863 488.936 14.6982 486.897 16.1651 486.511L25.4979 484.055C25.6315 484.02 25.7534 483.95 25.8511 483.852C25.9488 483.754 26.0189 483.632 26.0541 483.499L28.5105 474.165C28.8967 472.698 30.9355 472.586 31.4805 474.002L39.8921 495.873Z" fill="#FAFCFF"/>
<path d="M37.8731 17.1079C39.137 16.6217 40.3783 17.8636 39.892 19.1268L31.4809 40.9987C30.9365 42.4137 28.897 42.3018 28.5114 40.8349L26.055 31.5021C26.0197 31.3685 25.9497 31.2466 25.852 31.1489C25.7542 31.0512 25.6323 30.9811 25.4987 30.9459L16.165 28.4895C14.6981 28.1033 14.5862 26.0645 16.0019 25.5195L37.8731 17.1079Z" fill="#FAFCFF"/>
</svg>
