<svg width="49" height="49" viewBox="0 0 49 49" fill="none" xmlns="http://www.w3.org/2000/svg">
<circle cx="24.225" cy="24.225" r="24.225" fill="#FAFCFF"/>
<circle cx="24.225" cy="24.2249" r="18.1688" fill="#212332"/>
<path d="M23.8595 13.5744C22.3895 13.5744 21.1968 14.767 21.1968 16.237V25.3622C21.1968 26.3219 20.803 27.1318 20.3481 27.7198C19.7657 28.4742 19.4217 29.4117 19.4217 30.4379C19.4217 32.8898 21.4076 34.8757 23.8595 34.8757C26.3114 34.8757 28.2973 32.8898 28.2973 30.4379C28.2973 29.4117 27.9533 28.4742 27.3709 27.7253C26.916 27.1373 26.5222 26.3274 26.5222 25.3678V16.237C26.5222 14.767 25.3295 13.5744 23.8595 13.5744ZM17.6466 16.237C17.6466 12.8089 20.4258 10.0242 23.8595 10.0242C27.2932 10.0242 30.0724 12.8033 30.0724 16.237V25.3622C30.0724 25.3678 30.0779 25.3789 30.0835 25.3955C30.0946 25.4288 30.1279 25.4842 30.1778 25.5508C31.2262 26.9043 31.8475 28.6018 31.8475 30.4379C31.8475 34.8479 28.2695 38.4259 23.8595 38.4259C19.4495 38.4259 15.8715 34.8479 15.8715 30.4379C15.8715 28.5962 16.4928 26.8988 17.5412 25.5508C17.5912 25.4842 17.6244 25.4288 17.6355 25.3955C17.6411 25.3789 17.6466 25.3678 17.6466 25.3622V16.237ZM26.5222 30.4379C26.5222 31.9079 25.3295 33.1006 23.8595 33.1006C22.3895 33.1006 21.1968 31.9079 21.1968 30.4379C21.1968 29.2785 21.9402 28.2911 22.972 27.925V25.1126C22.972 24.6244 23.3714 24.225 23.8595 24.225C24.3477 24.225 24.7471 24.6244 24.7471 25.1126V27.925C25.7788 28.2911 26.5222 29.2785 26.5222 30.4379Z" fill="#FAFCFF"/>
</svg>
