<svg width="376" height="263" viewBox="0 0 376 263" fill="none" xmlns="http://www.w3.org/2000/svg">
<rect x="73" width="303" height="126" rx="10" fill="#323442"/>
<rect x="108" y="62" width="233" height="3" fill="#E4E4E4"/>
<rect x="108" y="39" width="233" height="3" fill="#E4E4E4"/>
<rect x="108" y="85" width="233" height="3" fill="#E4E4E4"/>
<ellipse cx="289.5" cy="86" rx="5.5" ry="5" fill="#01BAE8"/>
<ellipse cx="241.5" cy="63" rx="5.5" ry="5" fill="#01BAE8"/>
<ellipse cx="199.5" cy="40" rx="5.5" ry="5" fill="#01BAE8"/>
<path d="M329.325 251.787C318.854 251.352 309.314 247.126 304.999 240.578C304.797 240.272 304.607 239.961 304.429 239.646C302.853 236.856 302.361 233.649 304.084 230.899C305.807 228.15 310.114 226.062 314.431 226.496C318.749 226.93 322.128 230.377 320.338 233.106C319.943 227.591 319.612 221.797 324.057 216.997C326.504 214.488 329.696 212.838 333.157 212.293C342.114 210.717 348.061 215.783 349.252 220.894C350.131 224.67 348.917 228.507 347.708 232.243C351.434 227.836 360.293 225.876 367.082 227.957C373.871 230.038 377.633 235.866 375.314 240.711C372.583 246.409 363.478 249.354 355.021 250.911C348.035 252.198 337.564 252.13 329.325 251.787Z" fill="url(#paint0_linear_244_351)"/>
<path d="M196.289 261.932C240.324 259.746 280.442 238.508 298.591 205.605C299.44 204.064 300.239 202.503 300.99 200.92C307.616 186.9 309.686 170.784 302.441 156.968C295.195 143.152 277.084 132.66 258.926 134.841C240.769 137.022 226.564 154.345 234.084 168.056C235.747 140.345 237.14 111.227 218.446 87.1079C208.155 74.502 194.73 66.2104 180.173 63.4701C142.503 55.5511 117.495 81.0072 112.486 106.692C108.79 125.665 113.895 144.945 118.979 163.719C103.311 141.577 66.0523 131.725 37.5026 142.183C8.95302 152.641 -6.86435 181.927 2.88367 206.27C14.369 234.906 52.659 249.706 88.2257 257.53C117.603 263.993 161.641 263.651 196.289 261.932Z" fill="url(#paint1_linear_244_351)"/>
<defs>
<linearGradient id="paint0_linear_244_351" x1="303" y1="211.824" x2="376" y2="251.824" gradientUnits="userSpaceOnUse">
<stop stop-color="#E9E9E9"/>
<stop offset="1" stop-color="#5CB1FF"/>
</linearGradient>
<linearGradient id="paint1_linear_244_351" x1="1.83066e-05" y1="61.8244" x2="307" y2="262.824" gradientUnits="userSpaceOnUse">
<stop stop-color="#E9E9E9"/>
<stop offset="1" stop-color="#5CB1FF"/>
</linearGradient>
</defs>
</svg>
