<svg width="49" height="49" viewBox="0 0 49 49" fill="none" xmlns="http://www.w3.org/2000/svg">
<circle cx="24.225" cy="24.3251" r="24.225" fill="#FAFCFF"/>
<circle cx="24.225" cy="24.325" r="18.1688" fill="#212332"/>
<path d="M32.5381 26.1613H24.6474C24.3485 26.1613 24.0618 26.2801 23.8504 26.4917C23.639 26.7032 23.5202 26.9901 23.5202 27.2892C23.5202 27.5884 23.639 27.8753 23.8504 28.0868C24.0618 28.2983 24.3485 28.4171 24.6474 28.4171H32.5381C32.8371 28.4171 33.1238 28.536 33.3352 28.7475C33.5466 28.959 33.6654 29.2459 33.6654 29.5451C33.6654 29.8442 33.5466 30.1311 33.3352 30.3426C33.1238 30.5542 32.8371 30.673 32.5381 30.673C32.2392 30.673 31.9524 30.7918 31.741 31.0034C31.5297 31.2149 31.4109 31.5018 31.4109 31.8009C31.4109 32.1001 31.5297 32.3869 31.741 32.5985C31.9524 32.81 32.2392 32.9288 32.5381 32.9288C33.435 32.9288 34.2952 32.5723 34.9294 31.9378C35.5636 31.3032 35.9198 30.4425 35.9198 29.5451C35.9198 28.6476 35.5636 27.787 34.9294 27.1524C34.2952 26.5178 33.435 26.1613 32.5381 26.1613ZM26.9019 22.7775C26.9019 23.0767 27.0207 23.3636 27.2321 23.5751C27.4435 23.7866 27.7302 23.9055 28.0292 23.9055H32.5381C33.435 23.9055 34.2952 23.5489 34.9294 22.9144C35.5636 22.2798 35.9198 21.4191 35.9198 20.5217C35.9198 20.2225 35.8011 19.9356 35.5897 19.7241C35.3783 19.5126 35.0916 19.3938 34.7926 19.3938C34.4936 19.3938 34.2069 19.5126 33.9955 19.7241C33.7841 19.9356 33.6654 20.2225 33.6654 20.5217C33.6654 20.8208 33.5466 21.1077 33.3352 21.3192C33.1238 21.5308 32.8371 21.6496 32.5381 21.6496H28.0292C27.7302 21.6496 27.4435 21.7684 27.2321 21.98C27.0207 22.1915 26.9019 22.4784 26.9019 22.7775ZM22.393 27.2892C22.393 26.9901 22.2742 26.7032 22.0628 26.4917C21.8514 26.2801 21.5647 26.1613 21.2657 26.1613H17.884C17.2861 26.1613 16.7126 25.9236 16.2899 25.5006C15.8671 25.0775 15.6295 24.5037 15.6295 23.9055C15.6295 23.3072 15.8671 22.7334 16.2899 22.3103C16.7126 21.8873 17.2861 21.6496 17.884 21.6496C18.183 21.6496 18.4697 21.5308 18.6811 21.3192C18.8925 21.1077 19.0112 20.8208 19.0112 20.5217C19.0141 19.1877 19.4895 17.8979 20.353 16.8814C21.2164 15.865 22.412 15.1877 23.7273 14.9699C25.0427 14.7521 26.3926 15.0079 27.5372 15.6919C28.6818 16.3759 29.5471 17.4437 29.9793 18.7057C30.075 18.9899 30.2795 19.2244 30.548 19.3577C30.8165 19.491 31.1269 19.512 31.4109 19.4163C31.6949 19.3206 31.9293 19.1159 32.0625 18.8473C32.1956 18.5786 32.2167 18.268 32.121 17.9839C31.5471 16.2949 30.4184 14.8503 28.9189 13.8853C27.4194 12.9203 25.6376 12.4918 23.8636 12.6697C22.0897 12.8476 20.4282 13.6214 19.15 14.8649C17.8717 16.1085 17.052 17.7485 16.8244 19.5178C15.7497 19.7754 14.8069 20.4189 14.1751 21.3261C13.5433 22.2334 13.2665 23.3412 13.3972 24.4392C13.528 25.5372 14.0571 26.549 14.8843 27.2823C15.7114 28.0156 16.7789 28.4195 17.884 28.4171H21.2657C21.5647 28.4171 21.8514 28.2983 22.0628 28.0868C22.2742 27.8753 22.393 27.5884 22.393 27.2892ZM26.9019 30.673H21.2657C20.9668 30.673 20.68 30.7918 20.4686 31.0034C20.2573 31.2149 20.1385 31.5018 20.1385 31.8009C20.1385 32.1001 20.2573 32.3869 20.4686 32.5985C20.68 32.81 20.9668 32.9288 21.2657 32.9288H26.9019C27.2009 32.9288 27.4876 33.0477 27.699 33.2592C27.9104 33.4707 28.0292 33.7576 28.0292 34.0568C28.0292 34.3559 28.1479 34.6428 28.3593 34.8543C28.5707 35.0658 28.8574 35.1847 29.1564 35.1847C29.4554 35.1847 29.7421 35.0658 29.9535 34.8543C30.1649 34.6428 30.2836 34.3559 30.2836 34.0568C30.2836 33.1593 29.9274 32.2987 29.2932 31.6641C28.659 31.0295 27.7988 30.673 26.9019 30.673Z" fill="#FAFCFF"/>
<path d="M21.2657 30.673H26.9019C27.7988 30.673 28.659 31.0295 29.2932 31.6641C29.9274 32.2987 30.2836 33.1593 30.2836 34.0568C30.2836 34.3559 30.1649 34.6428 29.9535 34.8543C29.7421 35.0658 29.4554 35.1847 29.1564 35.1847C28.8574 35.1847 28.5707 35.0658 28.3593 34.8543C28.1479 34.6428 28.0292 34.3559 28.0292 34.0568C28.0292 33.7576 27.9104 33.4707 27.699 33.2592C27.4876 33.0477 27.2009 32.9288 26.9019 32.9288H21.2657C20.9668 32.9288 20.68 32.81 20.4686 32.5985C20.2573 32.3869 20.1385 32.1001 20.1385 31.8009C20.1385 31.5018 20.2573 31.2149 20.4686 31.0034C20.68 30.7918 20.9668 30.673 21.2657 30.673Z" fill="#FAFCFF"/>
</svg>
